<svg width="999.9999999999999" height="1006" xmlns="http://www.w3.org/2000/svg" preserveAspectRatio="xMidYMid meet">

 <g>
  <title>background</title>
  <rect fill="none" id="canvas_background" height="1008" width="1002" y="-1" x="-1"/>
 </g>
 <g>
  <title>Layer 1</title>
  <g fill="#2c48bf" id="layer1">
   <path id="svg_1" d="m685.601379,937.539856c-1.089844,-1.311279 -2.560913,-2.567139 -3.214905,-2.731079c-0.654175,-0.163635 -2.669983,-1.693054 -4.468567,-3.385681c-1.798157,-1.693359 -4.740967,-4.041809 -6.539246,-5.297791c-4.740967,-3.222534 -9.318359,-7.20929 -13.296326,-11.578186c-4.304993,-4.697205 -9.154785,-9.5578 -9.590454,-9.5578c-0.926697,0 -9.808777,-6.772156 -16.184814,-12.342896c-3.868652,-3.331543 -15.257629,-15.838196 -18.4729,-20.152771c-4.686584,-6.389832 -14.604187,-17.749878 -22.832458,-26.214966c-4.958862,-5.079224 -11.116516,-11.468994 -13.732727,-14.199768l-4.74054,-4.915222l0.326721,2.34845c0.163879,1.365173 0.054749,2.566772 -0.326721,3.05835c-0.381592,0.491821 -0.435913,0.928223 -0.108887,1.092285c0.2724,0.16394 0.653687,1.365479 0.871948,2.676086c0.218018,1.256226 0.599487,2.566833 0.871948,2.894531c0.272339,0.327698 0.435791,1.201782 0.435791,1.911743c-0.054688,0.709839 0.435669,2.566772 1.035278,4.041321c2.779175,6.990479 4.032654,15.892883 2.23407,15.783508c-0.762756,-0.054321 -0.653564,0.273254 0.381592,1.856995c1.144165,1.63855 1.3078,2.512146 1.3078,6.881348c0,5.13385 -1.035095,15.019043 -2.506836,23.265808c-0.925964,5.406921 -1.0896,6.117065 -2.234192,9.011353c-1.961792,5.024536 -2.887634,6.717651 -3.814331,7.04541c-1.253479,0.491272 -2.724487,-1.31073 -3.21521,-3.93219c-0.163208,-1.092285 -0.92627,-3.932251 -1.634583,-6.280884c-0.708374,-2.348511 -1.307861,-4.533142 -1.307861,-4.915222c0,-1.037659 -2.724792,-9.666748 -4.141479,-12.998291c-0.708313,-1.692993 -1.307861,-3.386108 -1.307861,-3.713745c0,-0.382324 -0.599548,-2.020935 -1.362305,-3.659241c-0.763062,-1.638184 -1.362488,-3.276978 -1.362488,-3.659119c0,-0.873718 -3.923157,-10.704285 -6.593628,-16.602966c-4.413879,-9.666626 -9.263733,-19.934082 -10.735168,-22.828674c-0.490234,-0.873718 -1.035461,-2.020691 -1.198608,-2.45752c-0.218018,-0.437073 -0.926697,-1.802307 -1.580261,-3.003906c-0.599487,-1.201721 -2.506836,-5.024719 -4.196228,-8.465454c-1.68927,-3.440369 -4.250244,-8.683594 -5.721558,-11.578308c-1.471497,-2.949036 -2.670166,-5.57074 -2.670166,-5.843567c0,-0.327576 -0.545166,-1.474487 -1.198669,-2.621521c-1.308228,-2.129944 -3.596802,-8.137512 -4.087097,-10.540649c-0.163635,-0.764404 -0.708374,-1.802368 -1.198975,-2.403076c-1.035156,-1.146606 -6.702515,-4.150757 -7.955933,-4.150757c-0.490356,0 -2.070923,-0.600769 -3.542297,-1.365173c-1.471008,-0.764343 -2.996887,-1.365479 -3.378357,-1.365479c-0.980774,0 -8.337402,-4.805969 -10.517273,-6.881348c-0.708221,-0.655334 -1.634491,-1.310791 -2.125183,-1.474731c-0.490326,-0.218323 -1.035126,-0.764343 -1.253113,-1.201355c-0.327148,-0.874023 -1.089935,-1.856873 -4.359833,-5.734619c-1.689026,-1.911255 -1.907013,-2.02063 -3.814362,-1.583679c-1.144196,0.218445 -3.433136,0.710083 -5.067749,1.037537c-4.141449,0.819397 -9.536072,2.130005 -13.07843,3.112976c-1.634857,0.436829 -4.359344,1.146851 -5.99408,1.52948c-1.634979,0.382141 -4.413818,1.201599 -6.103241,1.857056c-1.743774,0.655029 -3.542236,1.146545 -4.032288,1.146545c-0.490692,0 -1.634949,0.327942 -2.561249,0.764526c-3.923187,1.693176 -4.849854,1.966187 -6.157745,1.966187c-0.763031,0 -2.179657,0.327637 -3.106323,0.764709c-0.980713,0.437012 -2.724457,1.092285 -3.923462,1.419861c-1.19873,0.382629 -3.051697,1.092224 -4.086761,1.638489c-2.343292,1.201721 -7.847351,3.76825 -12.260895,5.73468c-1.798523,0.81897 -4.250671,1.911316 -5.449341,2.45752c-1.199005,0.546082 -4.523041,2.020813 -7.356689,3.276794c-2.833588,1.256104 -5.72171,2.621399 -6.375641,3.058533c-0.653931,0.43689 -1.689026,0.764893 -2.234467,0.764893c-0.5448,0 -1.198669,0.163513 -1.416595,0.382202c-1.1987,1.201172 -5.122284,1.911133 -11.606995,2.129822c-6.593933,0.218323 -7.411072,0.10907 -10.353516,-1.092285c-1.744141,-0.710083 -3.542084,-1.474915 -3.978302,-1.638428c-3.650787,-1.420166 -11.661407,-10.2677 -14.385925,-15.783875c-2.94278,-6.061951 -3.759918,-10.158081 -3.433136,-17.148743c0.1091,-3.550049 0.653931,-8.629211 1.144592,-11.35968c0.490295,-2.676392 1.198669,-6.499451 1.471405,-8.465454c0.326508,-1.966309 0.925995,-4.915222 1.307495,-6.553711c1.307892,-5.625366 2.397644,-10.650024 3.269623,-15.018921c0.490692,-2.403015 1.362213,-5.952881 1.961792,-7.864563c0.544739,-1.911621 0.926239,-3.604736 0.817383,-3.713806c-0.217957,-0.273071 -6.212036,2.89447 -7.083954,3.713806c-0.327087,0.27301 -0.871826,0.491577 -1.30777,0.491577c-0.381866,0 -2.561646,1.255798 -4.850128,2.730652c-2.288605,1.529175 -4.359497,2.730774 -4.686584,2.730774c-0.27243,0 -1.307861,0.491516 -2.233856,1.037781c-0.926666,0.600708 -2.67041,1.310791 -3.869446,1.638367c-1.198364,0.273071 -3.541595,0.928589 -5.176636,1.365356c-3.432831,0.983093 -6.866241,1.147034 -7.356293,0.327637c-0.218323,-0.382141 -0.708344,-0.327637 -1.417023,0.054626c-0.599518,0.327637 -2.397644,0.928406 -3.923462,1.419861c-1.580231,0.436829 -3.051392,1.037537 -3.378479,1.256287c-0.653931,0.491394 -6.266815,2.020569 -11.225708,3.003906c-4.958984,0.98291 -13.132813,1.25592 -13.405182,0.436462c-0.272736,-0.819031 3.541962,-3.440369 5.013367,-3.440369c0.653931,0 2.343262,-0.546204 3.868774,-1.256287c1.471405,-0.709717 3.759918,-1.638428 5.122559,-2.129822c1.9617,-0.655151 2.452026,-1.037659 2.452026,-2.075317c0,-1.419922 0.817535,-1.96637 5.449341,-3.549866c2.397705,-0.819397 4.250275,-1.529602 11.716125,-4.369507c1.035461,-0.382141 3.651123,-1.638062 5.721741,-2.730652c2.125336,-1.146729 4.468567,-2.402893 5.231354,-2.839661c0.817474,-0.382568 1.743408,-1.092285 2.125336,-1.52948c0.381195,-0.43689 0.980743,-0.81897 1.362274,-0.81897c0.38147,0 1.906952,-0.983521 3.378387,-2.23938l2.724518,-2.184631l-0.653625,-3.112915c-0.763062,-3.713989 0,-8.520081 1.689056,-10.922852c1.471436,-1.96637 2.070862,-3.604675 1.144226,-3.003845c-0.326813,0.218506 -2.016113,1.365173 -3.7052,2.457825c-6.321564,4.150513 -20.543823,11.359741 -22.505615,11.359741c-0.490692,0 -1.3078,0.21814 -1.8526,0.491455c-1.308105,0.764587 -5.722046,2.020569 -9.699951,2.785278c-2.506561,0.491516 -3.651123,0.491516 -4.523041,0.054626c-1.416992,-0.764832 -1.471039,-2.293823 -0.163208,-3.440796c1.416626,-1.256104 8.991302,-6.444336 9.427277,-6.444336c0.980652,0 6.702362,-3.932495 7.247498,-5.024597c0.490356,-1.03772 3.051575,-2.676147 8.500946,-5.461487c2.997131,-1.58374 10.789429,-7.864624 18.364075,-14.909973c4.359497,-4.095825 12.696594,-13.38031 12.696594,-14.199585c0,-0.218689 0.490662,-1.092285 1.144562,-1.966248c1.852966,-2.621216 4.305054,-7.481934 4.305054,-8.574219c0,-0.546387 0.217712,-1.201416 0.490417,-1.47467c0.708252,-0.710205 1.634583,-4.532837 2.343262,-9.284485c0.65387,-4.697021 0.163239,-16.38446 -0.926666,-21.408936c-0.435608,-2.020752 -1.089874,-5.078979 -1.471039,-6.717712c-0.327087,-1.638367 -1.199005,-4.314392 -1.907318,-5.953064c-0.708374,-1.583679 -1.253448,-3.276611 -1.253448,-3.713623c0,-0.382202 -0.435913,-0.873657 -0.926361,-1.092407c-0.544678,-0.163818 -1.96167,-1.14679 -3.215149,-2.129761c-1.85257,-1.474609 -2.397644,-2.403198 -3.48761,-6.062256c-0.871857,-2.730713 -1.253052,-5.242859 -1.144196,-7.045288c0.054352,-1.638428 -0.108856,-3.003906 -0.435974,-3.167542c-0.327118,-0.218506 -0.599518,-0.983276 -0.599518,-1.692993c0,-0.710205 -0.2724,-2.021057 -0.599518,-2.840149c-0.381134,-0.81897 -0.980713,-2.403137 -1.416687,-3.440796c-2.124939,-5.18811 -2.833649,-6.771973 -5.340149,-12.288086c-1.090118,-2.403137 -2.561249,-5.57074 -3.215149,-7.100159c-2.179749,-4.696655 -3.051605,-6.498962 -3.541962,-7.372742c-1.308197,-2.293884 -3.869141,-8.02832 -3.869141,-8.683716c0,-0.60083 -0.326782,-0.491455 -1.198639,0.327637c-2.125397,1.856995 -4.958984,3.331421 -7.247589,3.714111c-1.198975,0.21814 -4.087006,0.98291 -6.430328,1.692627c-2.343323,0.710205 -5.122162,1.310913 -6.157684,1.310913c-1.089844,0 -4.52298,0.60083 -7.73819,1.310913c-7.138641,1.638367 -21.63382,2.839966 -42.88559,3.604309c-13.623566,0.491577 -18.636932,0.92865 -23.977051,2.020691c-0.599518,0.109314 -2.942841,0.60083 -5.177277,1.092285c-2.233826,0.436768 -5.55777,0.928711 -7.356323,0.982971c-1.798187,0.054932 -4.250275,0.437256 -5.449005,0.819458c-1.199036,0.382141 -4.904556,0.873718 -8.228851,1.146973c-5.394684,0.38208 -9.318146,1.310791 -13.56842,3.222168c-2.506866,1.14679 -7.519943,2.239197 -8.718994,1.966248c-1.307739,-0.327881 -1.907303,0.43689 -1.907303,2.457458c0,0.874023 -5.013336,11.633057 -7.574631,16.329834c-0.27243,0.436768 -0.708328,1.420044 -1.035156,2.18457c-0.327087,0.764587 -1.035416,2.457764 -1.634583,3.822937c-0.599564,1.365479 -1.253815,3.058594 -1.471436,3.823059c-0.218292,0.764709 -0.871887,1.966248 -1.416992,2.675964c-0.599152,0.710205 -1.035141,1.693176 -1.035141,2.239258c0,0.491455 -0.599472,1.474731 -1.362549,2.18457c-0.708344,0.655396 -3.05159,4.80603 -5.17662,9.229797c-2.125641,4.369507 -4.250671,8.738647 -4.741333,9.612366c-0.490051,0.928345 -1.089493,2.02063 -1.253052,2.45752c-0.217987,0.437073 -0.81723,1.693054 -1.362244,2.730713c-0.545105,1.037842 -1.1987,2.293762 -1.36232,2.730591c-0.218277,0.437317 -0.817764,1.693115 -1.362549,2.730774c-1.035461,1.96637 -1.198715,2.239197 -2.670059,5.461548c-0.490356,1.037903 -1.08989,2.293884 -1.307877,2.731079c-0.272659,0.436768 -1.144562,2.293396 -2.016144,4.095886c-0.817474,1.802246 -1.907349,4.041504 -2.343338,4.915344c-0.490356,0.928284 -1.03508,2.020447 -1.1987,2.457397c-0.217911,0.437134 -0.817429,1.693115 -1.362549,2.730957c-0.5448,1.03772 -1.198685,2.293701 -1.362228,2.730835c-0.218002,0.436829 -0.817459,1.693054 -1.362259,2.730347c-0.544785,1.038086 -1.144257,2.293945 -1.362244,2.730957c-0.545105,1.255981 -1.907318,3.932068 -2.615982,5.188232c-1.907059,3.331604 -5.013077,10.759338 -4.740692,11.250793c0.217957,0.27301 0.108795,0.873718 -0.272385,1.310608c-0.3815,0.491455 -0.435944,0.819458 0,1.092346c0.38118,0.218567 0.38118,0.655334 0,1.420105c-0.327118,0.600464 -0.435944,1.310486 -0.272339,1.583679c0.163528,0.273071 0.054382,0.983032 -0.218323,1.583984c-0.544769,0.982849 -0.490051,1.037598 2.397995,0.272949c3.378403,-0.873901 4.304733,-0.655151 3.759949,0.982971c-0.327103,1.037903 -0.163544,1.092102 2.01622,0.655273c3.868744,-0.709656 6.212051,-0.600647 6.212051,0.328003c0,0.436829 -0.544754,1.037537 -1.198685,1.419861c-0.708664,0.327515 -1.089874,0.764648 -0.926331,0.928162c0.926331,0.928711 -1.416977,2.021057 -6.2668,2.894775c-5.285751,0.983093 -5.340179,0.983093 -5.285751,2.512451c0.054398,1.146606 0.981033,2.348206 3.596405,4.751404c3.051575,2.785278 3.378387,3.276794 2.506866,3.659058c-0.545105,0.218506 -1.471451,0.109314 -2.016525,-0.218262c-0.5448,-0.382141 -1.253113,-0.655518 -1.525497,-0.655518c-0.218307,0 -2.179764,-0.982971 -4.305038,-2.239258c-2.12532,-1.201538 -4.141479,-2.075195 -4.413879,-1.856873c-0.926651,0.546143 -0.708344,2.51239 0.326813,3.276855c1.19899,0.87384 0.54509,2.676025 -0.926315,2.293884c-0.817154,-0.218262 -1.089844,0.054626 -1.19899,1.20166c-0.108856,0.928162 -0.490067,1.419739 -1.089554,1.365356c-0.981033,-0.109314 -1.144638,0.327515 -1.798523,3.604492c-0.763077,3.713745 -2.452103,4.205139 -2.452103,0.655334c-0.054428,-1.802307 -0.108856,-1.91156 -0.708359,-0.92865c-0.327118,0.60083 -1.035431,2.184692 -1.471375,3.55011c-1.253098,3.549866 -2.506851,3.276855 -2.343307,-0.546021l0.163559,-3.004089l-1.253082,1.584167c-1.743805,2.18457 -2.506836,1.474426 -2.343292,-2.020996c0.108795,-2.020691 0.544739,-3.440796 1.416641,-4.587524c0.817474,-1.147156 1.08989,-2.075073 0.817474,-2.730591c-0.327103,-0.873962 -0.435944,-0.873962 -0.871872,0.272949c-0.708649,1.802307 -2.942505,1.474426 -2.942505,-0.43689c0,-1.092346 0.272415,-1.365479 1.362289,-1.365479c1.144241,0 3.269577,-1.692749 3.269577,-2.621582c0,-0.163879 -1.471405,0.218689 -3.269577,0.873718c-2.506866,0.928833 -3.378433,1.038025 -3.869125,0.546387c-0.490349,-0.491272 -0.490349,-0.87384 0.054749,-1.529358c0.599167,-0.709717 0.38121,-0.818909 -1.580536,-0.818909l-2.234138,0l0,-3.004028c0,-3.222107 0.871841,-4.314453 2.452103,-3.003601c1.198997,0.982971 3.106041,0.163574 2.72448,-1.146912c-0.435959,-1.36554 0.599548,-2.676086 2.01619,-2.676086c1.689667,0 0.926651,-1.092285 -2.888092,-4.314575c-4.30468,-3.713989 -5.285416,-6.717773 -1.3078,-4.096313c1.090149,0.710144 1.526093,0.764771 2.179703,0.21875c1.035431,-0.874084 2.288879,0.054565 2.561279,1.802124c0.109161,0.655334 0.599213,1.256042 1.144577,1.365417c0.490082,0.109314 2.233856,1.037659 3.814056,2.129944l2.834,1.911377l0.381195,-4.696838c0.599503,-6.71759 1.852936,-8.683533 3.324326,-5.133423l0.708359,1.747314l0.708618,-3.768372c1.035126,-5.734558 2.724503,-6.935913 2.833359,-2.020691c0.054688,2.403137 0.054688,2.457581 0.545059,0.928406c0.2724,-0.928406 1.1987,-2.512085 2.125336,-3.549744c1.634628,-1.802429 2.452148,-3.440796 4.904205,-9.284729c0.6539,-1.63855 1.416672,-3.385925 1.689087,-3.823059c0.272675,-0.436951 0.654236,-1.201355 0.817764,-1.638123c0.217712,-0.437195 1.144257,-2.512573 2.125031,-4.642395c0.926559,-2.075256 2.506821,-5.680054 3.487595,-7.91925c0.980698,-2.239014 2.234131,-5.078918 2.779144,-6.280518c0.5448,-1.201538 1.525497,-3.386169 2.179779,-4.915344c0.653595,-1.474426 1.8526,-4.205261 2.724518,-6.007507c0.817444,-1.80249 2.179672,-4.751404 2.997208,-6.553833c0.817459,-1.802307 2.016159,-4.478394 2.724487,-6.007629c1.08989,-2.293884 2.234146,-5.024536 5.176926,-12.015137c0.272369,-0.600708 0.599548,-1.966309 0.81749,-3.058472c0.163223,-1.146667 0.653946,-2.293945 1.089874,-2.676208c0.435883,-0.382141 0.817123,-1.365234 0.817123,-2.184509c0,-0.819092 0.490677,-1.911316 1.09021,-2.457397c0.599136,-0.546265 1.089508,-1.420227 1.089508,-1.96637c0,-0.546265 0.218307,-1.092285 0.435974,-1.255981c0.218292,-0.16394 1.090195,-1.583679 1.852905,-3.167847c3.269592,-6.771973 5.340576,-11.46875 5.340576,-11.960632c0,-0.327454 0.65358,-1.692993 1.416595,-3.003479c1.362274,-2.348511 1.416672,-2.512207 0.490341,-3.495544c-1.089798,-1.201599 -1.307785,-0.16394 1.961792,-10.322021c0.926331,-2.949341 0.980698,-3.768433 0.435989,-4.80603c-0.5448,-1.037598 -0.5448,-1.420227 0.163559,-2.18457c0.490326,-0.546143 1.035446,-2.129944 1.253067,-3.550171c0.381821,-2.512085 3.051636,-6.990601 4.195923,-6.990601c0.272339,0 1.198959,-0.491455 2.016434,-1.037598c0.81752,-0.60083 2.179794,-1.256226 3.106033,-1.474487c0.871887,-0.218506 2.343323,-0.874023 3.21521,-1.420166c0.9263,-0.546082 2.016113,-1.146973 2.452179,-1.310547c0.435867,-0.16394 1.580109,-0.655457 2.560913,-1.092651c0.926575,-0.436768 2.179688,-0.764374 2.779205,-0.764374c2.125244,0 14.713379,4.533112 17.32901,6.280487c0.708313,0.437256 1.634644,0.819336 2.125031,0.819336c0.490631,0 1.580505,0.382202 2.506866,0.819092c3.106049,1.638794 7.247498,2.075562 10.407928,1.092712c3.814667,-1.201599 11.934052,-3.440857 15.69397,-4.369568c1.63501,-0.382202 4.250702,-1.201294 5.722107,-1.802002c2.669739,-1.037598 4.032288,-1.529175 8.991333,-3.276886c1.362244,-0.436859 3.43277,-1.310913 4.631836,-1.857025c1.199005,-0.545868 3.432831,-1.310516 4.904236,-1.747375c1.526123,-0.437164 4.795349,-1.584137 7.356293,-2.512482c2.561615,-0.982971 5.885651,-2.075256 7.411163,-2.45752c1.580536,-0.382446 4.305023,-1.201477 6.157867,-1.856995c1.852631,-0.60083 3.923553,-1.146942 4.686646,-1.146942c1.416656,0 4.359467,-0.655426 10.080872,-2.239258c2.561279,-0.710052 4.087036,-1.529083 5.286011,-2.785309c1.634705,-1.802307 6.157745,-8.628967 6.157745,-9.448029c0,-0.218658 0.490356,-0.983398 1.089783,-1.747803c1.416718,-1.857025 1.362244,-3.331482 -0.327087,-8.246735c-1.907288,-5.570831 -2.016144,-14.309082 -0.217651,-20.043732c0.599182,-2.075317 1.361908,-4.696777 1.634338,-5.734344c0.763031,-3.004028 3.161133,-7.919312 4.359772,-9.011627c0.599152,-0.546143 1.089844,-1.4198 1.089844,-1.966003c0,-0.546173 0.272369,-1.146881 0.544739,-1.310547c0.653931,-0.382538 4.904297,-6.717987 4.904297,-7.26413c0,-0.218262 2.070923,-3.003632 4.523041,-6.116547l4.577667,-5.734619l-2.506744,-0.327515c-1.36264,-0.218658 -7.029633,-0.655487 -12.588104,-1.03775c-5.558136,-0.32782 -13.895813,-1.092224 -18.527649,-1.693054c-4.631927,-0.6008 -10.953094,-1.310822 -13.950012,-1.583832c-3.05191,-0.273102 -7.84726,-0.982941 -10.626251,-1.638367c-2.779205,-0.600739 -6.048798,-1.092316 -7.301941,-1.092316c-2.94281,0 -15.912018,-1.966309 -19.944702,-3.003906c-1.798126,-0.43692 -5.285736,-1.747772 -7.737885,-2.949432c-2.452026,-1.146515 -5.013367,-2.2388 -5.612823,-2.457397c-0.653595,-0.218567 -1.580261,-0.819 -2.125,-1.4198c-0.545166,-0.601166 -1.307861,-1.092346 -1.634918,-1.092346c-0.381256,0 -1.362305,-0.546448 -2.234161,-1.256256c-0.817535,-0.655457 -3.051697,-2.184479 -4.904572,-3.386078c-5.122192,-3.331543 -10.462372,-7.099884 -14.167938,-9.939911c-5.122589,-3.986969 -16.565918,-13.271057 -19.018066,-15.455994c-1.253448,-1.037598 -3.269608,-2.785095 -4.577423,-3.822998c-1.308197,-1.037689 -2.779205,-2.293915 -3.269623,-2.730743c-0.490631,-0.436859 -2.724503,-2.129913 -4.958939,-3.768372l-4.032394,-2.948944l-1.090088,1.583771c-1.7435,2.457489 -6.593323,6.935974 -8.827759,8.137543c-1.089584,0.600739 -3.542023,2.621399 -5.340179,4.423767c-4.849838,4.915283 -10.244751,7.864227 -12.914886,7.045197c-1.526108,-0.491486 -2.997162,-3.932281 -2.234436,-5.243134c0.381546,-0.545837 0.654282,-1.310547 0.654282,-1.692841c0,-0.928619 3.214844,-4.150787 7.465134,-7.591583c1.907333,-1.474548 3.433533,-3.058319 3.433533,-3.440552c0,-0.491486 -0.871918,-0.92865 -2.17981,-1.146881c-1.798508,-0.327911 -2.779205,-0.054657 -5.613205,1.310516c-1.906967,0.92868 -3.705185,1.693085 -3.977539,1.693085c-1.19902,0.054657 -4.795471,3.877625 -5.449692,5.789368c-0.435593,1.146912 -0.762695,3.931946 -0.762695,6.116852c0,3.713684 -0.108871,4.150513 -1.580246,5.625092c-1.907043,1.856934 -4.359482,2.129883 -4.795456,0.546021c-0.217926,-0.873657 -0.599136,-0.65506 -2.5065,1.420227c-1.907349,2.075317 -2.452103,2.402863 -4.141785,2.239258l-1.961456,-0.16394l-0.054749,-4.096313c0,-4.095886 0.435974,-9.065796 1.199005,-12.506592c0.327148,-1.69281 0.27243,-1.747375 -0.653885,-1.256195c-2.125336,1.146881 -6.212372,-0.600525 -6.212372,-2.621521c0,-2.129883 14.876831,-13.107391 17.71022,-13.107391c0.272369,0 1.689331,-1.146942 3.106339,-2.566864c2.452118,-2.403137 2.942474,-2.621399 8.173843,-3.822968c3.705521,-0.819427 7.356659,-2.129913 11.171005,-3.986938c11.061935,-5.461517 16.78392,-4.915314 29.3172,2.730713c1.961792,1.201569 3.760284,2.18454 4.032639,2.18454c0.217712,0 1.525513,0.546173 2.833725,1.256256c2.288483,1.201599 3.650742,1.747711 10.026352,4.314484c6.757507,2.676056 16.783905,6.444458 21.361389,8.082886c3.542297,1.256226 8.391785,3.386169 15.96637,6.990875c2.670502,1.310577 9.536438,4.969971 11.87973,6.389862c0.490356,0.327545 2.724518,1.638428 4.849854,2.94928l3.923492,2.348175l11.606995,1.310944c6.37561,0.710022 14.059052,1.41983 17.056274,1.583679c2.996979,0.218628 8.828064,0.928436 12.969238,1.638458c10.081543,1.802368 21.034271,2.239288 31.605743,1.36554c4.686584,-0.382538 8.773651,-0.873962 9.100464,-1.09259c0.545105,-0.327515 0.435974,-0.982971 -0.272369,-2.894348c-0.926239,-2.512115 -0.980988,-2.512115 -1.906982,-1.365479c-0.981079,1.256134 -3.106384,1.037659 -2.561615,-0.272949c0.163544,-0.327911 0.435944,-1.092285 0.654205,-1.583832c0.27243,-0.655426 -0.163544,-1.146851 -1.634888,-1.802338c-3.106079,-1.529144 -3.596344,-2.566833 -2.56134,-5.734375c0.926666,-3.003876 0.545135,-3.986938 -1.8526,-4.587738c-2.779236,-0.710052 -4.032654,-1.966278 -4.032654,-3.986938c0,-1.965942 1.471436,-7.154541 2.234558,-8.028229c0.871826,-0.982971 0.544708,-1.802368 -1.743805,-4.478424c-2.179779,-2.621429 -2.179779,-2.730713 -1.907379,-5.952911c0.217896,-2.840027 0.054382,-3.714081 -1.253418,-6.553741c-2.397705,-5.024628 -3.051331,-7.755341 -2.997223,-12.834564c0.109161,-4.696686 1.307861,-10.103516 2.833679,-12.451965c0.436279,-0.710144 1.199005,-2.075348 1.689301,-3.003662c0.490662,-0.928711 1.416718,-2.020996 2.070923,-2.348511c0.708344,-0.327911 1.689056,-0.983093 2.234161,-1.474854c0.545044,-0.49115 1.798218,-1.092255 2.833649,-1.25589c1.035461,-0.218567 2.833313,-1.36554 4.195923,-2.676056c1.3078,-1.310944 3.542267,-2.785431 4.958954,-3.276917c1.416687,-0.546112 2.942505,-1.256226 3.378387,-1.638397c0.43631,-0.32785 2.561371,-1.310944 4.632202,-2.184601c4.849457,-1.966339 5.176666,-2.239227 5.176666,-4.314484c0,-2.512482 2.888031,-8.137817 4.904449,-9.612396c1.307495,-0.928314 2.615387,-1.255829 5.285858,-1.365143c3.487488,-0.109314 3.541931,-0.163971 5.067688,-2.457825c2.17981,-3.276825 4.250397,-4.860657 6.484833,-4.915283c1.961731,0 5.067444,1.638458 6.211792,3.276855c0.708618,1.037659 0.817749,0.982971 2.725067,-0.327881c1.0896,-0.709717 2.016174,-1.692749 2.016174,-2.129913c0,-0.382294 0.926361,-1.474487 2.016235,-2.402924c1.689026,-1.420074 2.506744,-1.692993 4.850098,-1.692993c2.342987,0 3.16037,0.272919 5.230713,1.911682c1.362579,1.092255 2.888763,2.785004 3.433502,3.768311c0.980713,1.802063 1.035461,1.856689 4.087036,1.583832c4.958954,-0.491516 7.683472,1.58374 9.208923,6.935883c0.490692,1.693146 1.526154,3.222168 3.324341,4.96991c2.997223,2.894714 5.285828,6.881348 4.468658,7.700684c-0.381836,0.382294 -1.144623,0.382294 -2.343323,-0.054657c-0.926605,-0.327515 -2.234436,-0.600739 -2.833557,-0.600739c-1.035919,0 -0.98114,0.163971 0.490265,1.802338c3.432922,3.604492 4.959015,7.700714 3.215179,8.35611c-1.253418,0.491486 -1.035431,1.092255 1.634674,4.369202c1.362213,1.638428 2.452057,3.549713 2.452057,4.259857c0,0.710052 0.599548,2.403137 1.362274,3.659088c2.070923,3.659332 1.689392,10.540649 -0.871918,15.346619c-0.599457,1.092285 -1.798157,5.40686 -3.323914,11.633026c-0.272491,1.201538 -1.089905,3.167542 -1.798248,4.36911l-1.253418,2.239227l1.307861,2.676056c1.471313,3.058319 1.689301,6.062256 0.544708,7.646057c-0.381195,0.6008 -0.925964,2.129944 -1.144287,3.386169c-0.217926,1.310608 -0.599457,2.45752 -0.871857,2.676056c-0.980743,0.600769 -0.435913,1.310852 1.907288,2.45752c4.468628,2.075562 4.57782,2.403107 2.83371,8.847565c-0.817535,3.058563 -1.907043,6.444397 -2.397644,7.482391c-0.490387,1.037628 -1.362274,3.385864 -2.016296,5.188232l-1.089508,3.276855l-2.833954,0c-3.86908,0 -4.413818,0.655426 -2.997253,3.659027c0.654022,1.310913 1.308228,3.112976 1.525909,3.986969c0.163544,0.928375 0.817169,3.113312 1.416626,4.915314c0.599487,1.802307 1.308136,4.860626 1.526184,6.82663c0.326782,2.348572 0.76297,3.768677 1.416595,4.205536c1.362274,0.982971 2.942749,0.874054 2.942749,-0.16394c0,-0.491425 0.490448,-1.802399 1.035553,-2.894684c1.525421,-2.839661 4.413544,-9.229736 4.413544,-9.611908c0,-0.218262 0.871918,-1.857117 1.9617,-3.713806c1.907715,-3.222229 2.01651,-3.713715 2.452423,-10.212738c1.035522,-15.183105 1.580231,-20.699127 2.670135,-25.013702c0.599487,-2.512115 1.089935,-5.024597 1.089935,-5.57077c0,-2.075256 6.429962,-22.173248 7.301849,-22.883331c0.381531,-0.327576 2.561279,-4.478424 4.904602,-9.175201c2.342926,-4.751404 4.468262,-9.01123 4.740936,-9.448364c0.2724,-0.436829 0.762756,-1.41983 1.035156,-2.129913c0.327087,-0.710144 1.144287,-2.020691 1.907257,-2.840057c0.708405,-0.873688 1.471497,-2.129944 1.634674,-2.7854c0.218323,-0.709808 0.81781,-1.692719 1.253448,-2.238831c1.089844,-1.256256 2.997192,-4.369141 4.359436,-7.209167c0.599518,-1.20163 1.907349,-3.058655 2.942841,-4.096283c1.035065,-1.037628 2.452087,-3.112885 3.1604,-4.533112c0.762787,-1.474457 1.743805,-2.894318 2.234192,-3.167511c0.490295,-0.272888 1.471405,-1.583832 2.125336,-2.949005c0.653839,-1.365509 1.798126,-2.94928 2.5065,-3.495483c0.763092,-0.60083 2.016541,-2.02063 2.779205,-3.167542c0.763092,-1.146942 1.907318,-2.621429 2.56131,-3.276917c0.599487,-0.655426 1.689331,-1.911621 2.397705,-2.839966c0.708313,-0.928375 1.471008,-1.583801 1.743774,-1.41983c0.545105,0.327545 1.907349,-1.693085 2.342957,-3.550171c0.327087,-1.419769 8.283264,-11.086761 10.190308,-12.397308c0.599548,-0.437225 2.179749,-2.293884 3.541931,-4.205566c1.362366,-1.911377 2.942871,-3.60437 3.542297,-3.768341c0.599304,-0.163666 1.307556,-0.873688 1.580322,-1.58374c0.65387,-1.693146 1.5802,-2.403259 3.596375,-2.840088c1.089905,-0.218262 1.907349,-0.873764 2.343323,-1.856689c1.3078,-2.94931 4.79541,-7.209183 8.391846,-10.322113c0.272278,-0.218597 0.980835,-1.256134 1.580017,-2.293854c0.599548,-0.983002 1.580627,-1.911713 2.180115,-2.075562c0.544678,-0.163666 1.035217,-0.655182 1.035217,-1.146667c0,-0.436829 1.3078,-2.075531 2.833618,-3.659363c1.580566,-1.529175 4.304993,-4.31456 5.994141,-6.171585c1.74408,-1.856613 3.542236,-3.385818 3.97821,-3.385818c0.435913,0 0.817139,-0.218552 0.817139,-0.49144c0,-1.693085 8.119324,-9.339127 9.917908,-9.339127c0.545166,0 0.980774,-0.273254 0.980774,-0.655426c0,-0.546188 2.670349,-3.440796 7.792603,-8.355957c0.599548,-0.600769 2.343262,-2.402893 3.814636,-3.987c1.525757,-1.583679 3.868774,-3.549698 5.285889,-4.423462c1.416565,-0.873947 4.74054,-3.604706 7.410889,-6.116867c7.683472,-7.263794 11.279907,-10.158447 13.078064,-10.540726c0.871887,-0.218521 3.433228,-2.020584 5.722046,-4.041565c3.650879,-3.27684 5.830566,-4.915283 9.481689,-7.045197c0.599548,-0.382217 2.888184,-1.802078 5.122253,-3.22226c2.234192,-1.41983 4.523071,-2.621414 5.068054,-2.676025c0.544922,-0.054626 1.852661,-0.873672 2.888123,-1.911713c1.907288,-1.856628 4.359497,-3.495117 8.282959,-5.461426c1.253479,-0.655106 2.560974,-1.529144 2.942444,-1.966003c0.326782,-0.436798 0.981079,-0.764709 1.362244,-0.764709c0.435913,0 0.763062,-0.218262 0.763062,-0.546143c0,-0.272888 1.743896,-1.638443 3.923523,-3.058289c5.612854,-3.713715 12.315308,-8.956856 20.653076,-16.165749c2.342957,-2.075607 4.413879,-3.713997 4.686218,-3.713997c0.218079,0 1.743896,-1.419914 3.433228,-3.167618c1.634644,-1.747711 4.195862,-4.150536 5.721436,-5.352097c3.814697,-3.004013 4.359741,-3.495461 7.247437,-6.062302c6.648254,-5.952896 11.716187,-10.595276 16.238892,-14.855125c5.340759,-5.079262 8.937195,-7.81002 10.463013,-7.919281c0.490295,0 1.416565,-0.491173 2.016174,-1.037666c2.179688,-2.020615 6.866272,-5.188202 8.609741,-5.843597c0.980957,-0.327576 3.105957,-1.201584 4.740906,-1.966003c5.72168,-2.457848 10.40802,-3.495453 16.020935,-3.495453c4.196228,0 5.776367,0.218552 7.520203,1.092308c1.253235,0.6008 3.051636,1.092247 3.923523,1.092247c2.506531,0 8.50061,5.789307 10.625977,10.322121c2.397705,5.079208 2.016357,6.499046 -2.833679,11.141426c-2.125366,2.020691 -4.305054,3.659088 -4.849854,3.659088c-0.653625,0 -0.817444,0.273254 -0.599487,0.874039c0.163574,0.436882 -0.163208,1.365189 -0.762756,2.020615c-0.599426,0.655502 -1.253113,1.474548 -1.471375,1.85672c-0.435974,0.819397 0.163513,2.348526 0.981018,2.348526c0.381226,0 1.253113,0.600784 1.90741,1.310905c1.798157,1.911621 4.904236,3.331459 5.66687,2.566757c0.327148,-0.327606 0.981079,-0.600784 1.417053,-0.600784c0.435974,0 1.198975,-0.327606 1.634644,-0.764412c0.490356,-0.43721 2.616028,-1.693085 4.686218,-2.785393c3.705872,-2.020966 6.48468,-3.659416 10.408386,-6.171555c1.035706,-0.655418 2.561157,-1.201584 3.433105,-1.201584c0.871704,0 2.016113,-0.546143 2.779175,-1.365196c0.708313,-0.764679 1.525879,-1.365479 1.798157,-1.365479c0.327271,0 0.980774,-0.327545 1.416992,-0.764763c0.490356,-0.382164 2.724487,-1.419838 4.958618,-2.238884c2.234192,-0.819397 5.013428,-1.966347 6.157776,-2.567131c1.144226,-0.600456 2.397583,-0.928307 2.833679,-0.764351c0.435913,0.163895 0.926575,0.054642 1.14447,-0.273254c0.163208,-0.272888 1.961975,-1.310555 3.92334,-2.184593c2.016541,-0.928329 4.904236,-2.23925 6.375549,-2.949287c6.10321,-2.839676 8.500854,-3.659088 9.591064,-3.385857c0.653625,0.163651 1.907104,-0.054619 2.724548,-0.491478c2.561157,-1.310867 7.411133,-0.983322 10.789429,0.709763c4.79541,2.457771 7.90155,5.625336 9.590881,9.830582c0.762756,2.02095 1.471497,4.314491 1.471497,5.18853c0.054443,0.819054 0.38147,1.529167 0.708252,1.529167c1.253113,0 1.852661,1.365486 2.397705,5.461441c0.326843,2.239166 0.817139,5.188522 1.144287,6.553734c1.144287,4.860657 1.144287,7.536713 0,9.448395c-0.599609,0.928329 -1.089966,2.348534 -1.089966,3.112862c0,2.129974 -3.596191,5.352509 -7.138184,6.390175c-4.686707,1.365211 -7.465881,1.529114 -8.664673,0.436806c-0.92627,-0.819382 -0.981018,-0.819382 -0.871704,0.054634c0.054321,0.764412 -1.144409,1.419876 -5.122314,2.839752c-6.920776,2.457787 -10.245056,3.386116 -12.261047,3.386116c-1.471375,0 -8.391968,1.911682 -12.369934,3.386185c-1.689026,0.655411 -1.961792,1.256195 -0.708435,1.747711c0.490417,0.163986 0.817322,1.037659 0.817322,2.239243c0,1.201569 0.436218,2.348511 1.089844,3.003647c0.871887,0.874023 0.981018,1.365463 0.545105,2.18454c-0.272461,0.546478 -0.599182,2.020966 -0.65387,3.276871c-0.054565,1.201584 -0.381531,2.457794 -0.708374,2.730698c-0.381592,0.327896 -0.545044,1.420181 -0.436096,2.676392c0.163391,1.474548 -0.163513,2.676132 -0.871826,3.931992c-0.599426,1.037674 -1.634827,2.785385 -2.234436,3.877701c-0.708374,1.310822 -1.961304,2.512466 -3.4328,3.222183c-1.25354,0.655411 -2.997314,1.693069 -3.923523,2.403152c-2.779236,2.075333 -7.02948,4.096298 -8.500916,4.096298c-1.253479,0 -2.724487,-0.92868 -9.209412,-5.680054c-0.435791,-0.32785 0.326843,0.710037 1.79834,2.239227c1.416992,1.583725 2.56134,3.222214 2.56134,3.659088c0,0.436813 -0.763184,1.365219 -1.689514,2.075256c-0.926331,0.710068 -2.452026,2.075607 -3.378418,3.058578c-0.981018,1.037659 -3.542175,2.840012 -5.667236,4.04129c-2.179749,1.201599 -3.977844,2.293884 -3.977844,2.403168c0,0.109283 1.307434,-0.327881 2.887878,-0.982941c3.269653,-1.420227 10.353699,-2.020996 11.552612,-0.983032c0.435974,0.327545 0.8172,1.146942 0.92627,1.802063c0.109009,0.764709 1.035461,1.638397 2.615723,2.457764c1.471497,0.710083 2.452209,1.583847 2.452209,2.12999c0,0.546066 1.035339,1.911606 2.34314,3.058212c1.253174,1.201569 2.288696,2.45784 2.288696,2.785385c0,1.638474 1.416931,3.549911 2.888,3.82283c0.871826,0.164032 1.689331,0.819458 1.961731,1.583862c0.2724,0.655426 0.872009,1.584061 1.362671,1.966263c0.490234,0.382217 0.871399,1.310562 0.871399,2.020599c0,1.037674 0.272522,1.310928 1.30835,1.310928c1.580017,0 2.724426,1.25592 2.397278,2.621429c-0.217712,0.710114 0.163635,1.201538 1.144531,1.638428c0.763184,0.327545 2.343506,1.41983 3.48761,2.348511c1.798279,1.474487 2.016174,1.911316 1.743896,3.331528c-0.218384,0.982956 -0.054932,2.020676 0.381165,2.785049c1.471313,2.293884 1.580505,3.822968 0.272766,5.188507c-1.144592,1.201599 -1.144592,1.310883 -0.21814,1.802368c0.599182,0.382233 0.871948,0.928345 0.654114,1.529144c-0.163818,0.546112 0.054321,1.310928 0.544678,1.693085c1.144531,0.928314 1.089844,1.146912 -1.035583,3.82309c-1.144226,1.4198 -1.743286,2.730682 -1.5802,3.33139c0.16333,0.655426 -0.054321,1.146942 -0.599426,1.365265c-0.490234,0.218597 -1.253174,1.201523 -1.689026,2.18457c-0.490723,1.256195 -1.144592,1.857025 -1.853027,1.857025c-0.653931,0 -1.416504,0.491486 -1.798157,1.146866c-0.65387,0.983093 -2.397583,2.020645 -4.958923,2.894363c-1.362366,0.437195 -1.743835,1.802399 -0.871948,3.386139c0.381653,0.764771 3.21521,3.604828 6.321167,6.390106c3.052124,2.78537 5.612671,5.40683 5.612671,5.898346c0,0.436859 0.599487,1.419861 1.362549,2.130005c0.763062,0.710022 2.016235,2.403076 2.833679,3.76825c0.763,1.36554 1.90741,2.840118 2.452087,3.276855c0.599548,0.382538 0.926331,1.092346 0.708374,1.583862c-0.163208,0.436798 0.163513,1.365448 0.708496,1.966248c2.288818,2.512177 1.907471,12.670288 -0.599548,14.745941c-0.817322,0.709778 -0.981018,1.092285 -0.490295,1.25592c0.381348,0.16391 1.035217,0.983307 1.471069,1.802368c0.763062,1.474457 0.654358,1.856995 -1.307434,6.662994c-3.760193,9.011505 -9.754395,20.261993 -11.988464,22.555908c-5.067871,5.188171 -5.885315,5.78894 -9.590881,7.045227c-2.124939,0.710052 -4.904541,1.474457 -6.266785,1.693024c-1.362183,0.218231 -3.92334,0.873718 -5.721802,1.419861c-2.778748,0.928406 -3.323792,0.928406 -3.977783,0.273224c-0.708679,-0.655426 -0.98114,-0.6008 -2.125305,0.819031c-0.762878,0.874023 -1.689575,1.583801 -2.070679,1.583801c-0.435913,0 -2.179993,0.6008 -3.923523,1.310852c-1.743713,0.76474 -3.869019,1.474518 -4.740967,1.693115l-1.634949,0.327606l1.580566,1.037628c0.817444,0.546051 2.670044,1.420166 4.032288,1.966309c1.36261,0.491547 3.433228,1.529114 4.523071,2.238892c1.144165,0.655426 2.397705,1.256195 2.77887,1.256195c0.436218,0 1.199097,0.437225 1.689392,1.037659c1.253418,1.420197 7.247986,4.260223 9.86322,4.697021c1.199097,0.218262 3.106445,0.819061 4.195923,1.365173c1.144592,0.546173 3.051697,1.146942 4.250549,1.36554c1.199036,0.218323 3.160828,0.819061 4.304993,1.41983c1.198853,0.546204 2.724548,1.03772 3.433289,1.03772c0.708191,0 2.015808,0.49176 2.942322,1.037598c0.926392,0.546173 3.596558,1.420197 5.939819,1.911713c2.397766,0.491394 4.686279,1.256195 5.17688,1.693054c0.544983,0.491486 2.016296,0.819061 3.760071,0.819061c1.580505,0 5.394897,0.6008 8.446411,1.310852c2.997009,0.764771 6.102966,1.41983 6.866028,1.529144c0.980774,0.109283 1.362122,0.491486 1.307861,1.365509c0,1.092316 0.05426,1.092316 1.307678,0.272919c1.362488,-0.873718 3.051819,-0.764404 14.82196,1.256226c7.956116,1.310883 17.383789,4.369202 18.800537,6.007629c0.326782,0.327576 0.87146,0.546082 1.253479,0.382141c0.762573,-0.218262 7.574219,2.457794 8.881958,3.55014c0.435974,0.382202 1.144287,0.709747 1.471619,0.709747c0.326721,0 1.362122,0.655426 2.23407,1.474823c0.926208,0.873688 2.397644,2.075256 3.323853,2.785339c1.525879,1.201569 1.635071,1.529144 1.635071,4.642059c0,3.003998 -0.272522,3.713776 -1.907349,5.953003c-1.144653,1.529449 -2.506958,2.730682 -3.378784,2.94928c-0.8172,0.218567 -1.961731,0.982941 -2.561279,1.693085c-1.634644,1.856628 -6.375305,2.785309 -17.764343,3.440796c-5.231567,0.272949 -11.225769,0.764374 -13.351013,1.037628c-2.070618,0.327606 -5.394592,0.546112 -7.356323,0.600525c-2.016235,0 -3.814636,0.218475 -4.087036,0.49173c-0.326782,0.272919 -4.359192,0.655212 -8.991272,0.819122c-10.462769,0.382111 -15.367065,0.819397 -16.075806,1.474792c-0.272156,0.272888 -1.580139,0.49118 -2.996704,0.49118c-1.362671,0.054596 -4.032837,0.382477 -5.994446,0.819397c-1.961792,0.437134 -4.522827,0.819397 -5.721741,0.819397c-1.198608,0 -3.378479,0.382172 -4.849854,0.819061c-1.471436,0.436798 -3.324036,0.819336 -4.141357,0.819336c-0.8172,0 -3.051758,0.491486 -4.904663,1.092285c-3.432922,1.092285 -12.042908,2.457489 -20.707092,3.276855c-2.561279,0.21817 -5.340149,0.600464 -6.266785,0.764404c-0.871582,0.218597 -2.17981,0.491516 -2.83374,0.655457c-0.65387,0.109314 -1.907288,0.873688 -2.833313,1.638397c-1.035339,0.873779 -2.125305,1.310608 -2.779663,1.146942c-0.544678,-0.163879 -1.143921,0 -1.198547,0.272888c-0.108826,0.327881 -1.689026,0.710114 -3.433228,0.819427c-1.798035,0.16391 -3.487427,0.436829 -3.81427,0.710083c-0.272644,0.218201 -1.471191,0.600769 -2.560913,0.819092c-1.852966,0.327545 -2.125671,0.218506 -3.051697,-1.255951l-0.980957,-1.693085l-0.599609,1.583771c-0.653625,1.69281 -0.163208,5.133606 0.871948,6.171173c1.035461,1.038055 0.65387,2.567108 -0.762634,3.113312c-0.762939,0.272888 -2.071106,0.983032 -2.888245,1.583801c-0.817322,0.600739 -2.670288,1.310791 -4.196167,1.638367c-3.106079,0.60083 -7.083984,2.184601 -6.64801,2.566803c0.163574,0.16394 0.871887,0 1.525818,-0.382202c0.708374,-0.327881 4.195862,-0.819031 7.792542,-1.092255c7.955933,-0.546204 10.353638,-0.054688 11.661499,2.34845c4.577393,8.301208 9.863098,14.144806 17.274292,19.005798c0.926208,0.600403 2.506775,2.184631 3.54187,3.549744c0.980713,1.36557 2.234253,2.457855 2.724854,2.457855c0.490479,0 1.361938,0.491516 1.852295,1.037689c0.54541,0.600769 2.12561,1.310516 3.542297,1.638367c1.416992,0.273193 3.651184,0.983032 4.958862,1.583801c1.362427,0.546143 3.324097,1.201569 4.414063,1.419861c1.089844,0.16391 2.397705,0.819397 2.942627,1.420166c0.599243,0.65509 1.689209,1.092346 2.670166,1.092346c0.92627,0 3.269653,0.600708 5.231384,1.310516c1.961365,0.76474 5.612549,2.129913 8.173706,3.058533c6.484863,2.402832 13.62323,5.898376 13.950317,6.772034c0.16333,0.437164 0.708252,0.655426 1.307861,0.49176c0.599243,-0.163879 1.907349,0.218323 2.888123,0.873749c1.035156,0.655457 2.179626,1.146912 2.50647,1.146912c1.035828,0 6.539185,4.696716 8.555725,7.263855c2.234192,2.785309 2.3974,5.133575 0.544678,7.263489c-1.253357,1.529449 -1.253357,1.529449 -4.468201,0.819366c-1.744202,-0.43689 -4.414246,-1.310883 -5.940063,-2.020966c-6.757141,-3.058258 -16.45636,-6.007538 -22.014832,-6.607971l-2.452148,-0.273315l3.269287,3.659454c1.743774,2.075287 3.869385,4.423431 4.741333,5.242798c0.817078,0.819031 1.471069,1.856689 1.471069,2.239227c0,0.436859 0.708252,1.146606 1.5802,1.693115c1.417053,0.819031 4.958862,5.570709 4.958862,6.608337c0,0.218292 0.871887,1.419891 1.907104,2.676056c1.0354,1.20163 1.907471,2.512146 1.907471,2.839722c0,0.32782 0.762939,2.020966 1.689148,3.768677c1.635132,3.003662 1.635132,3.167603 0.763123,4.150513c-0.926697,1.03772 -0.926697,1.092407 0.054199,1.474609c1.634888,0.600708 6.593933,4.369019 7.520203,5.734619c0.490295,0.655396 0.871704,1.693115 0.871704,2.293823c0,0.546143 0.763245,2.348145 1.689209,3.932007c0.926697,1.638428 1.526184,2.949341 1.308105,2.949341c-0.217896,0 0.108887,0.81897 0.708496,1.802124c0.599365,0.928711 1.471252,3.222412 2.01593,4.970276c0.490417,1.74762 1.199158,3.713623 1.635193,4.368958c0.381042,0.655212 0.871765,2.512207 1.089355,4.150696c0.163879,1.638367 0.70874,3.440796 1.199097,3.93219c0.5448,0.655518 0.708557,1.419922 0.490356,2.403198c-0.326843,1.146667 0,1.911316 1.253479,3.549805c1.907288,2.348572 2.01593,3.167542 0.871887,5.406799c-0.599487,1.146912 -1.307983,1.638428 -2.996948,1.911682c-2.28894,0.382202 -2.670349,0.272888 -12.261292,-3.058655c-2.669983,-0.928406 -5.885315,-1.911255 -7.083923,-2.239197c-1.198608,-0.272888 -2.670105,-0.819092 -3.269592,-1.201172c-0.599426,-0.382568 -2.070923,-0.874146 -3.269531,-1.092285c-2.234192,-0.437317 -6.266479,-3.222656 -6.266479,-4.369568c0,-0.546204 -3.651062,-5.789001 -5.013428,-7.154175c-0.871765,-0.928589 0.762695,2.621399 2.179443,4.532715c2.942749,4.041626 0.763184,4.642517 -9.42688,2.62146c-3.869202,-0.819031 -7.793091,-1.419861 -8.718994,-1.419861c-1.689392,0 -13.678223,-2.512085 -14.495422,-3.058289c-0.217834,-0.109253 -2.016052,-0.327454 -4.032288,-0.491699c-1.961731,-0.10907 -4.849731,-0.600525 -6.430054,-1.03772c-2.561218,-0.709839 -10.626343,-2.348145 -14.004639,-2.785095c-2.39801,-0.327698 -6.811951,-1.474792 -7.356567,-1.91156c-0.272522,-0.218262 -2.179932,-0.710144 -4.196045,-1.092285c-4.359741,-0.873718 -5.285767,-1.802429 -9.427612,-9.557495c-3.323914,-6.226135 -3.378418,-6.389954 -3.759888,-7.372986c-0.218018,-0.43689 -1.089905,-1.802124 -1.961914,-3.004028c-0.926086,-1.201172 -2.506409,-3.495117 -3.541809,-5.024292c-1.035461,-1.58374 -2.016541,-2.894623 -2.179688,-2.894623c-0.436035,0 0.599426,1.857025 3.378662,6.062225c1.253418,1.966064 2.342834,3.822998 2.342834,4.041687c0,0.545776 5.994202,11.304993 6.97522,12.397278c0.708374,0.873657 0.653931,1.147034 -0.926208,2.730774c-1.416992,1.474487 -1.907471,1.638428 -2.670105,1.146851c-0.653931,-0.38208 -1.308289,-0.436829 -1.961853,-0.054626c-0.654114,0.382263 -1.634583,0.272949 -3.215149,-0.382202c-1.253113,-0.546082 -5.44928,-1.420105 -9.372803,-1.966309c-8.446228,-1.201599 -12.260864,-2.184448 -14.495056,-3.768311c-0.871887,-0.655396 -2.016479,-1.03772 -2.452026,-0.873779c-0.436279,0.163696 -1.798584,-0.16394 -3.051636,-0.819214c-2.28894,-1.147034 -2.997314,-1.092285 -6.81189,0.764709c-0.70813,0.327576 -1.416687,0.382141 -1.634644,0.218201c-0.163635,-0.218201 -0.653992,-0.109009 -1.035095,0.218628c-0.871887,0.710083 -3.760376,-0.710083 -4.577881,-2.293823c-0.490356,-0.819214 -0.817139,-0.983093 -1.307861,-0.546265c-0.544678,0.437317 -1.307739,0.382324 -2.888,-0.16394c-1.362305,-0.491089 -2.452087,-0.600342 -2.942505,-0.272888c-0.435852,0.272888 -1.416992,0.491577 -2.234436,0.491577c-1.906982,0 -2.343079,0.819336 -1.307861,2.403015c0.435913,0.709717 0.654236,1.419922 0.490601,1.63855c-0.545044,0.546021 -0.654175,10.103455 -0.108704,10.431335c0.653503,0.436829 0.653503,3.385803 0,3.768311c-0.708618,0.491577 -0.545471,2.949097 0.272339,3.659119c1.089905,0.928345 0.92627,2.566711 -0.327087,3.222168c-1.362366,0.710083 -1.362366,1.80249 -0.109131,3.932373c0.926514,1.58374 0.926514,1.638306 -0.381592,2.676025l-1.307373,1.092224l1.307373,1.474609c0.708679,0.819336 3.978271,4.314514 7.302307,7.75531c9.154907,9.503052 12.80603,13.653625 13.35083,15.073853c0.2724,0.709717 0.763,1.310364 0.980652,1.310364c0.272644,0 1.416992,1.146973 2.506836,2.621765c2.942444,3.768433 4.250305,5.461182 6.048828,7.700745c1.525513,1.911316 2.125,2.948975 4.304993,7.700256c0.490417,1.037598 1.743469,3.003967 2.778931,4.369141c1.035461,1.36554 2.125427,3.004028 2.397705,3.604736c0.272522,0.655518 0.871948,1.311035 1.307983,1.474487c0.817383,0.328003 3.814575,5.243042 4.413696,7.263977c0.217957,0.655273 1.471497,3.222107 2.833984,5.734253c1.362305,2.512573 2.615356,5.18866 2.779053,5.953369c0.545044,2.075195 3.160339,7.154114 5.667297,10.922974c1.470886,2.239197 2.070496,3.549561 1.689331,3.932129c-0.817566,0.819092 -1.798584,0.054321 -4.904602,-3.713989c-1.525757,-1.802429 -4.086731,-4.314453 -5.667297,-5.57074c-1.634583,-1.255981 -3.487183,-2.839661 -4.195862,-3.604431c-0.708374,-0.764709 -1.525879,-1.256226 -1.743835,-1.092285c-0.272339,0.109192 -2.615723,-0.982971 -5.285767,-2.512451c-2.724792,-1.474426 -5.122559,-2.730347 -5.340454,-2.730347c-0.2724,0 -2.942566,-1.201599 -5.939758,-2.621826c-2.996826,-1.474548 -7.138306,-3.495056 -9.263611,-4.478088c-2.070557,-0.983398 -4.41394,-2.239502 -5.177002,-2.730774c-0.763123,-0.491821 -1.852539,-1.037537 -2.452087,-1.201904c-0.599121,-0.163635 -1.5802,-0.49115 -2.179749,-0.764404c-0.926331,-0.38208 -0.980713,-0.272888 -0.435913,0.382202c0.381226,0.491516 0.817566,2.293945 1.035461,4.096313c0.217834,1.747559 0.762756,3.659058 1.19873,4.205139c0.708313,0.819458 0.763062,1.256226 0.217957,2.676086c-0.544739,1.474915 -0.490356,1.911804 0.326965,2.840149c1.362427,1.638245 2.615723,4.150696 3.051697,6.062256c0.218079,0.928162 0.980713,3.604614 1.689453,6.007446c0.708252,2.403198 1.579895,6.062195 1.906921,8.1922c0.327148,2.075623 0.817566,4.041504 1.035522,4.369141c0.926331,1.092285 1.580261,6.772278 0.871948,7.373169c-0.708435,0.600708 -9.972351,-4.587708 -10.462769,-5.844055c-0.163635,-0.436829 -0.8172,-0.982971 -1.471375,-1.310486c-0.599243,-0.327881 0.980713,1.583679 3.541992,4.2052c8.609985,8.847473 8.501221,8.628967 8.882507,12.725281c0.163513,1.965942 0.326965,4.80603 0.326965,6.335144c0,1.74762 0.490479,3.659302 1.307922,5.461365c0.762756,1.474426 2.016235,4.314453 2.833618,6.280884c0.762817,1.965942 2.016174,4.205139 2.778992,4.969971c0.708252,0.764282 1.416931,2.23877 1.580261,3.276855c0.218262,1.201599 0.763062,2.129822 1.471313,2.457458c0.599609,0.273193 1.36261,0.983337 1.689453,1.583801c0.327087,0.600708 1.035461,1.692993 1.5802,2.403137c0.490601,0.710205 0.926208,1.857117 0.926208,2.512085c0,0.655518 0.381592,1.529419 0.817444,1.911743c0.436096,0.32782 0.926392,1.201599 1.144592,1.802002c0.217896,0.655823 1.144287,1.857117 2.070679,2.621826c1.416992,1.255859 1.5802,1.583801 0.92627,2.348511c-0.653931,0.764343 -0.599182,0.873657 0.381531,0.873657c1.307861,0 5.176941,3.112915 4.741028,3.823059c-0.163513,0.218323 0.108765,0.710022 0.5448,1.092224c0.871887,0.710083 2.452454,3.658997 2.452454,4.533081c0,0.27301 1.253052,1.63855 2.833252,3.112976c1.907349,1.802246 2.670166,2.839905 2.452515,3.495422c-0.218445,0.600708 -0.05481,0.873657 0.599548,0.873657c1.525452,0 2.288147,1.146973 2.288147,3.331604c0,1.693115 0.381836,2.34845 2.125549,3.877686c1.362061,1.146912 2.561035,2.948975 3.324097,4.805908c0.653931,1.638489 1.471375,3.604858 1.8526,4.369263c0.435974,0.764648 1.144226,2.34845 1.689514,3.550049c0.871765,2.02063 0.871765,2.18457 -0.054504,2.839661c-0.871887,0.600769 -0.817566,0.710083 0.435913,1.202026c1.961792,0.764282 3.923462,3.713623 4.03241,6.171204c0.054382,1.146851 0.490295,2.512024 0.926208,3.058472c1.471436,1.638489 4.850098,8.792969 4.468201,9.393494c-0.217529,0.382141 0.272827,1.310791 1.09021,2.18457c1.743835,1.856934 8.282959,14.691162 8.773315,17.312866c0.490479,2.566833 -0.272522,3.222351 -2.561218,2.02063c-1.743774,-0.873657 -1.743774,-0.819275 0.653992,1.529175c2.288574,2.348572 3.759949,5.3526 3.759949,7.864624c0,0.600708 0.381348,1.583801 0.817444,2.239258c0.980774,1.419922 2.234192,20.698853 1.634583,25.832336c-0.817139,7.810425 -1.525757,12.889282 -1.90686,13.380798c-0.218079,0.327576 -0.545166,1.419739 -0.763245,2.51239c-0.217896,1.091919 -0.92627,2.62146 -1.580139,3.331604c-0.980713,1.037659 -1.198975,1.856689 -1.035217,3.276733c0.218079,2.129822 -2.179626,7.318237 -6.103088,13.161865c-0.545105,0.819397 -1.308228,1.47467 -1.743835,1.47467c-0.653992,0 -2.997498,-4.532837 -6.321533,-12.015076c-0.599182,-1.365479 -1.525574,-3.33136 -2.125,-4.423706c-0.545166,-1.092285 -1.035522,-2.293762 -1.035522,-2.676453c0,-0.327515 -0.599426,-1.4198 -1.362061,-2.402893c-0.763184,-0.982849 -1.362366,-2.075134 -1.362366,-2.40271c0,-0.327942 -0.545105,-1.256287 -1.19873,-2.130371c-1.144592,-1.365112 -1.852905,-2.566772 -3.923523,-6.335205c-0.327087,-0.655334 -1.798401,-3.003784 -3.215576,-5.188354c-1.416504,-2.184326 -2.560852,-4.04126 -2.560852,-4.205322c0,-0.109192 -0.708313,-1.310486 -1.5802,-2.566772c-5.067749,-7.646057 -6.593933,-10.049133 -6.593933,-10.595337c0,-0.327576 -0.599121,-1.146912 -1.362244,-1.856934c-0.762695,-0.7099 -1.362244,-1.529175 -1.362244,-1.856812c0,-0.272827 -1.308105,-1.802246 -2.888062,-3.276855c-1.525818,-1.529114 -5.286194,-5.734619 -8.22821,-9.338928c-2.997559,-3.604797 -6.212402,-7.263916 -7.138977,-8.192261c-0.980774,-0.873718 -2.942627,-3.003967 -4.359497,-4.642395c-1.47113,-1.638428 -9.263733,-9.830566 -17.383179,-18.186401c-8.119385,-8.35614 -14.876465,-15.40155 -14.930969,-15.729126c-0.10907,-0.272949 -0.653931,-1.037659 -1.25354,-1.747681c-1.089722,-1.310669 -8.119385,-10.540894 -11.933594,-15.674377l-2.452393,-3.331543l-0.381287,1.80249c-0.599609,3.00354 -2.779663,4.095886 -7.302307,3.76825c-0.653809,-0.054626 -3.596619,0.546265 -6.539185,1.365173c-2.996948,0.819397 -6.37561,1.584167 -7.57428,1.747925c-1.199036,0.109253 -2.39801,0.436707 -2.724792,0.655334c-0.272461,0.21875 -2.397766,0.710144 -4.631897,1.092224c-3.324402,0.546265 -5.776123,0.546265 -12.751587,0c-7.138428,-0.600708 -9.209229,-0.600708 -11.988098,0c-7.847107,1.693237 -19.835632,3.276917 -24.957886,3.276917c-3.433105,0 -4.250488,0.16394 -4.250488,0.819397c0,0.491455 0.435913,0.982971 0.981018,1.146973c1.689026,0.545837 7.95575,3.713684 10.18988,5.133484c8.119812,5.188538 16.293274,12.670532 24.195129,22.118958c3.487488,4.150696 4.304626,5.352234 7.57428,11.195984c2.833496,5.079163 8.010498,12.888977 9.155212,13.926697c0.490295,0.436768 4.08667,5.679993 6.484436,9.448425c0.326782,0.436462 0.871704,1.201172 1.253296,1.693115c0.381592,0.49115 1.580322,2.184143 2.615723,3.768311c1.035217,1.583801 3.541992,4.969849 5.558167,7.536682c2.016235,2.566833 3.923462,5.188599 4.250549,5.789124c0.326843,0.546021 1.144409,1.4198 1.798279,1.856873c0.599121,0.436951 1.144226,1.037659 1.144226,1.256409c0,0.21814 3.051819,3.549622 6.757202,7.317993c8.22821,8.520142 7.520325,8.356262 15.693787,3.768738c4.032654,-2.239441 8.119629,-2.403076 12.533569,-0.437195c3.106384,1.365723 5.885254,4.096313 5.885254,5.73468c0,0.491577 0.327148,1.365234 0.708313,1.966003c0.435913,0.600708 1.035522,2.348511 1.416992,3.822998c0.381226,1.529114 1.035522,4.095886 1.416687,5.734741c0.435974,1.638306 0.871887,4.095886 1.035156,5.461365c0.763062,6.007446 1.362488,9.175232 2.12561,11.03186c0.490417,1.146912 1.035217,3.222534 1.253052,4.642334c0.163696,1.420227 0.926697,4.096252 1.580627,5.898376c1.253052,3.440796 2.234253,6.226257 4.413818,12.56134c0.762756,2.129883 1.689392,5.789307 2.070679,8.1922c0.762695,4.041504 0.926208,4.478271 3.269531,6.663025c1.634949,1.474365 2.506897,2.785339 2.506897,3.604736c0,0.709778 0.599426,1.856934 1.362183,2.566711c0.763184,0.710144 1.362366,1.802307 1.362366,2.457458c0,0.655701 0.599426,1.747742 1.362427,2.457825c0.762817,0.710083 1.362244,1.583923 1.362244,1.966064c0,0.327698 0.381226,0.928711 0.8172,1.310791c1.089905,0.873779 1.035461,2.730652 -0.108826,5.024292c-0.490295,0.983398 -1.035339,2.184814 -1.253479,2.621765c-0.272339,0.546143 -1.362183,0.873657 -3.105957,0.982971c-2.670105,0.164001 -2.833679,0.109436 -4.740967,-2.293457zm-57.380981,-211.522095c-0.763123,-1.747925 -1.63501,-3.495544 -1.907288,-3.823059c-0.327209,-0.382568 -1.689392,-2.949402 -3.160461,-5.73468c-2.56134,-5.079285 -4.577759,-8.793091 -6.04895,-11.359741c-0.435913,-0.710205 -2.070862,-2.949341 -3.705444,-4.860718c-1.580566,-1.966248 -3.542358,-4.533081 -4.359497,-5.73468c-0.762817,-1.201538 -1.852905,-2.62146 -2.343323,-3.16748c-0.544678,-0.546204 -0.980652,-1.256409 -0.980652,-1.583923c0,-0.32782 -0.545166,-1.365479 -1.25354,-2.293823c-0.65387,-0.982849 -1.471375,-2.129883 -1.743774,-2.621521c-0.326721,-0.491394 -1.798035,-2.839966 -3.378357,-5.133728c-1.580261,-2.348328 -3.269653,-5.297729 -3.814453,-6.608093c-0.545349,-1.310974 -1.253723,-2.403198 -1.635254,-2.403198c-0.381165,0 -1.471008,-1.146973 -2.451721,-2.512512c-0.98114,-1.365173 -4.305054,-5.242798 -7.411438,-8.574219c-3.05127,-3.331604 -6.865967,-7.700745 -8.446533,-9.721436c-1.525452,-2.020874 -3.269226,-3.877563 -3.814026,-4.041504c-0.490723,-0.218689 -1.253357,-0.928406 -1.634949,-1.63855c-0.327148,-0.655334 -3.596375,-4.041199 -7.193115,-7.482056l-6.539246,-6.280701l0.054749,3.058533c0,1.692993 -0.163513,4.805908 -0.436218,6.881348c-0.272461,2.129944 -0.599304,4.915222 -0.653687,6.280701c-0.10907,1.365173 -0.272339,2.730835 -0.381348,3.003723c-0.109253,0.327576 0.05426,1.146851 0.272278,1.856934c0.272278,0.764709 0.217957,1.474609 -0.163269,1.85675c-0.327087,0.32782 -0.599365,1.638794 -0.599365,2.949219c0,2.020752 -0.218384,2.457886 -1.308289,2.894714c-0.762817,0.272827 -1.634705,0.983032 -1.961731,1.638428c-0.326843,0.60083 -1.035217,1.092346 -1.634705,1.092346c-0.653748,0 -1.089783,0.436829 -1.198975,1.256165c-0.108765,0.873779 -0.599182,1.25592 -1.634583,1.365173c-1.689453,0.218323 -2.070557,1.693237 -0.762756,2.785461c0.490356,0.382202 0.871887,2.129822 1.035095,4.314453c0.272766,3.386108 0.708679,6.44458 1.744141,11.74231c0.381226,1.802002 0.2724,2.129944 -0.708618,2.348206c-1.089905,0.327759 -1.089905,0.327759 0.217957,2.239197c0.817444,1.256287 1.307739,2.730713 1.307739,4.041565c0,1.529053 0.21814,2.130066 0.817566,2.130066c0.763062,0 3.650757,1.14679 7.628967,3.058105c2.070618,0.983032 3.48761,1.911743 9.045837,5.953003c9.808777,7.209045 18.418457,12.288513 20.652588,12.288513c0.436401,0 1.144653,0.327454 1.580627,0.710083c0.490295,0.436707 1.743469,1.03772 2.779175,1.474487c1.035217,0.382141 3.214966,1.256226 4.79541,1.965942c1.580261,0.710022 3.214844,1.310913 3.650818,1.310913c0.381653,0 1.471436,0.600708 2.343262,1.365234c0.926331,0.764648 1.798218,1.365417 1.961853,1.365417c0.21759,0 1.144226,0.546143 2.016113,1.256165c1.362244,0.983032 2.452148,1.201355 6.103271,1.310608c6.321289,0.109314 8.282959,0.382751 9.372803,1.256226c0.5448,0.436951 1.525818,0.710205 2.234131,0.655457c0.708679,-0.109192 1.689331,0.054749 2.234253,0.382263c0.545044,0.32782 1.416931,0.600647 1.907227,0.600647c0.817261,0 0.763184,-0.382141 -0.490295,-3.112732zm-209.743805,-1.747925c12.642426,-3.932251 25.448395,-5.133789 37.273376,-3.55011c1.798218,0.21875 2.833618,0.164124 2.833618,-0.218201c0,-0.655273 -3.433105,-6.444397 -4.631836,-7.755188c-0.436218,-0.491638 -0.817413,-1.092346 -0.817413,-1.365601c0,-0.272949 -0.327148,-0.873657 -0.763123,-1.310608c-0.435944,-0.491455 -1.143951,-1.47467 -1.525818,-2.239258c-0.435883,-0.764648 -1.907013,-3.16748 -3.324005,-5.352051c-1.416595,-2.184631 -2.560883,-4.041565 -2.560883,-4.150879c0,-0.109375 -1.035522,-1.747742 -2.288849,-3.604492c-1.307892,-1.856995 -2.778992,-4.150879 -3.324066,-5.079285c-0.599487,-0.982971 -1.199005,-1.96637 -1.471436,-2.184509c-0.381531,-0.436829 -2.724792,3.932373 -2.724792,5.079285c0,0.873657 -5.503723,11.523682 -6.756805,13.216736c-0.654266,0.764343 -1.852631,2.676086 -2.779297,4.2052c-0.871857,1.583801 -3.378326,5.516174 -5.503723,8.792908c-2.125336,3.331604 -3.759918,6.007751 -3.59671,6.007751c0.163605,0 1.035797,-0.218323 1.961761,-0.491699zm-79.450714,-14.30896c0.926361,-0.272888 2.125366,-0.983032 2.670197,-1.58374c0.544769,-0.600891 1.144226,-1.092285 1.416656,-1.092285c0.218231,0 1.199005,-0.710205 2.234467,-1.583862c0.980652,-0.873962 2.397644,-2.129944 3.1604,-2.785461l1.36261,-1.201416l-1.36261,0.873962c-2.670135,1.747375 -4.14151,2.676025 -6.375641,4.205261c-1.253052,0.873596 -2.397736,1.583801 -2.561249,1.583801c-0.163269,0 -1.19873,0.655334 -2.342926,1.420105c-1.144348,0.819092 -1.580292,1.310547 -0.98111,1.037415c0.599487,-0.218323 1.852997,-0.600525 2.779205,-0.873779zm-139.392838,-176.295654l2.343292,-0.928284l-1.253769,-1.092285c-2.070587,-1.802368 -5.013062,-2.894653 -6.10321,-2.293884c-0.708344,0.436829 -0.8172,0.709961 -0.2724,1.310486c0.327118,0.382629 0.490662,1.584229 0.381485,2.676392c-0.217911,1.747498 -0.163544,1.85675 1.198685,1.529175c0.763062,-0.16394 2.398056,-0.710022 3.705917,-1.201599zm216.772629,-27.689392c0.43631,-4.205536 1.035858,-10.267822 1.308197,-13.599304c0.272339,-3.276855 0.871582,-8.519653 1.362213,-11.577972c0.926697,-6.444763 1.089905,-11.414429 0.272369,-11.906281c-0.272369,-0.163513 -0.544678,0.054718 -0.544678,0.491852c0,0.491211 -0.653992,2.293518 -1.416992,3.986664c-0.817169,1.747711 -2.016266,4.423798 -2.670105,5.898285c-2.070648,4.587799 -4.250671,14.74588 -3.978271,18.569214c0.327026,3.932007 4.032959,16.493256 4.686584,15.838226c0.108795,-0.054688 0.545074,-3.550079 0.980682,-7.700684zm8.882813,-127.415588c0.599243,-0.382538 0.599243,-0.710052 -0.163879,-1.747711c-0.490326,-0.710083 -0.871887,-1.037628 -0.871887,-0.764709c0,0.327515 -0.163208,1.092285 -0.326752,1.802368c-0.381622,1.255951 0.109039,1.529114 1.362518,0.710052zm-1.96167,-13.926819c-0.327271,-3.003937 -0.381897,-3.113251 -1.035492,-1.911621c-1.035492,1.857025 -0.926331,3.822998 0.163544,4.642395c0.544678,0.382172 1.035431,0.600769 1.089478,0.546143c0.05481,-0.054749 -0.054047,-1.529541 -0.217529,-3.276917zm-16.457184,-94.865479c-0.980713,-0.819092 -1.416687,-0.928345 -1.743744,-0.382202c-0.599243,0.983032 -0.054443,1.529114 1.580231,1.529114l1.471283,-0.054657l-1.30777,-1.092255zm347.174927,-80.610901c0.327087,-0.43692 -0.054504,-0.382202 -1.089905,0.109222c-0.871826,0.491577 -1.961731,1.256317 -2.342896,1.747757c-0.654297,0.76442 -0.435974,0.709763 1.035034,-0.163895c1.035583,-0.546188 2.070618,-1.365219 2.397766,-1.693085zm6.103149,-2.94899c2.506958,-1.201645 5.23175,-2.840042 6.103271,-3.604782l1.580322,-1.365204l-2.451843,1.365204c-1.362549,0.710129 -4.141785,2.239288 -6.266846,3.386185c-4.032654,2.129913 -4.52301,2.457779 -3.869019,2.457779c0.272278,0 2.452026,-0.983337 4.904114,-2.239182z"/>
   <path id="svg_2" d="m145.466919,729.403809c-0.490723,-1.256226 0.163574,-2.457703 1.416626,-2.457703c1.362625,0 2.016144,1.365417 1.08989,2.457703c-0.871597,1.03772 -2.125336,1.03772 -2.506516,0z"/>
   <path id="svg_3" d="m112.226196,719.2453c-0.163544,-0.327454 0.054413,-0.982971 0.544739,-1.474426c0.817505,-0.819397 0.9263,-0.819397 1.74382,0c1.035416,1.037659 0.599487,2.075378 -0.871918,2.075378c-0.544754,0 -1.19899,-0.273315 -1.416641,-0.600952z"/>
   <path id="svg_4" d="m127.265976,711.32605c-0.599472,-0.655029 -0.544754,-0.983093 0.163605,-1.747375c0.871841,-0.819397 0.981003,-0.819397 1.852585,0c0.708344,0.764282 0.763046,1.092346 0.163544,1.747375c-0.381195,0.491882 -0.871887,0.874146 -1.089523,0.874146c-0.218323,0 -0.708649,-0.382263 -1.09021,-0.874146z"/>
   <path id="svg_5" d="m112.171432,710.234131c-0.435944,-1.20166 0.544815,-2.676453 1.798538,-2.676453c1.1987,0 1.689041,1.638489 0.762756,2.730774c-0.871902,1.092285 -2.125336,1.037598 -2.561295,-0.054321z"/>
   <path id="svg_6" d="m145.194489,688.934509c-0.926636,-1.1474 0,-2.676453 1.743805,-2.676453c1.471039,0 2.016144,1.529053 1.035141,2.731079c-0.871597,1.037659 -1.8526,1.037659 -2.778946,-0.054626z"/>
   <path id="svg_7" d="m156.528748,686.695068c-0.762695,-0.709839 -0.326797,-2.348328 0.708664,-2.894531c1.307877,-0.710022 2.179764,-0.327759 2.179764,1.037598c0,1.638672 -1.907349,2.894714 -2.888428,1.856934z"/>
   <path id="svg_8" d="m153.095612,664.466919c-0.490341,-1.310486 0.218307,-2.621399 1.253754,-2.403198c0.65358,0.109314 0.980698,0.655518 0.980698,1.529602c0,1.583801 -1.743698,2.238831 -2.234451,0.873596z"/>
   <path id="svg_9" d="m141.107452,652.943298c-0.217987,-0.491516 -0.108887,-1.147034 0.217926,-1.474487c0.81752,-0.819275 2.397781,-0.054688 2.179459,1.037598c-0.217682,1.25592 -1.961472,1.583801 -2.397385,0.43689z"/>
   <path id="svg_10" d="m152.550842,649.120178c-0.217941,-0.491333 0,-1.256104 0.490723,-1.747559c1.144241,-1.146973 2.669754,-0.491638 2.452118,1.037842c-0.218292,1.528992 -2.452118,2.075378 -2.942841,0.709717z"/>
   <path id="svg_11" d="m177.890137,643.057983c-0.926331,-1.146912 0,-2.675964 1.74379,-2.675964c1.471054,0 2.016205,1.529053 1.035141,2.730591c-0.871582,1.037659 -1.852661,1.037659 -2.778931,-0.054626z"/>
   <path id="svg_12" d="m118.165863,641.965698c-0.435959,-1.201599 0.490356,-2.676025 1.798187,-2.676025c1.634644,0 1.4711,3.22229 -0.217941,3.440796c-0.763092,0.109192 -1.362274,-0.163879 -1.580246,-0.764771z"/>
   <path id="svg_13" d="m163.068008,642.457275c-0.817535,-0.819092 -0.272446,-2.402893 0.981018,-3.003662c1.961395,-0.874084 2.888016,0.054565 2.016144,2.020691c-0.599442,1.256165 -2.179703,1.802429 -2.997162,0.982971z"/>
   <path id="svg_14" d="m153.640717,639.508179c-0.163254,-0.327454 0.054413,-0.98291 0.54509,-1.474854c0.817139,-0.819031 0.92598,-0.819031 1.743805,0c1.035126,1.038086 0.599136,2.075378 -0.871902,2.075378c-0.545074,0 -1.19899,-0.272888 -1.416992,-0.600525z"/>
   <path id="svg_15" d="m131.080673,638.142761c-0.599503,-0.655518 -0.544754,-0.983093 0.163589,-1.693115c1.198685,-1.255981 2.833282,0 1.961731,1.529175c-0.653915,1.256226 -1.19899,1.310852 -2.12532,0.16394z"/>
   <path id="svg_16" d="m126.176422,634.920532c-0.817764,-0.982971 -0.272354,-1.911682 1.089554,-1.911682c0.54509,0 1.199036,0.273193 1.362595,0.546509c0.381195,0.600586 -0.654236,2.184448 -1.362595,2.184448c-0.217651,0 -0.708313,-0.382446 -1.089554,-0.819275z"/>
   <path id="svg_17" d="m158.762909,631.643677c-0.490372,-1.146912 -0.490372,-1.529114 0.16362,-2.184509c0.654221,-0.655518 0.926559,-0.600952 2.125275,0.272766c1.089859,0.874146 1.253403,1.20166 0.762787,2.020935c-0.926376,1.529175 -2.288589,1.474487 -3.051682,-0.109192z"/>
   <path id="svg_18" d="m135.658142,630.551331c-0.490402,-1.201477 1.198654,-2.894775 2.01619,-2.075317c0.817429,0.819458 0.381454,2.566833 -0.762802,2.785461c-0.490692,0.109314 -1.090195,-0.218628 -1.253387,-0.710144z"/>
   <path id="svg_19" d="m132.878906,626.127502c-0.163269,-0.436768 0.054382,-1.201538 0.490341,-1.638306c0.708298,-0.710205 0.871887,-0.710205 1.47139,0c0.381531,0.491394 0.599487,1.256165 0.381531,1.692932c-0.381531,1.092346 -1.907318,1.037781 -2.343262,-0.054626z"/>
   <path id="svg_20" d="m129.664001,618.044556c-0.490677,-1.310852 0.217667,-2.621277 1.253128,-2.403137c0.653931,0.109314 0.980713,0.655518 0.980713,1.529175c0,1.584167 -1.743774,2.239258 -2.233841,0.873962z"/>
   <path id="svg_21" d="m117.075668,610.780884c-1.525497,-0.272949 -2.560913,-1.583801 -2.124985,-2.621521c0.544785,-1.528992 1.85257,-1.474487 3.868774,0c1.526138,1.201599 1.798492,1.63855 1.308167,2.239258c-0.653931,0.764343 -0.871902,0.819031 -3.051956,0.382263z"/>
  </g>
 </g>
</svg>