<!DOCTYPE svg PUBLIC "-//W3C//DTD SVG 20010904//EN" "http://www.w3.org/TR/2001/REC-SVG-20010904/DTD/svg10.dtd">
<svg version="1.0" xmlns="http://www.w3.org/2000/svg" width="1452px" height="1600px" viewBox="0 0 14520 16000" preserveAspectRatio="xMidYMid meet">
<g id="layer1" fill="#2c48bf" stroke="none">
 <path d="M10666 15956 c-20 -24 -47 -47 -59 -50 -12 -3 -49 -31 -82 -62 -33 -31 -87 -74 -120 -97 -87 -59 -171 -132 -244 -212 -79 -86 -168 -175 -176 -175 -17 0 -180 -124 -297 -226 -71 -61 -280 -290 -339 -369 -86 -117 -268 -325 -419 -480 -91 -93 -204 -210 -252 -260 l-87 -90 6 43 c3 25 1 47 -6 56 -7 9 -8 17 -2 20 5 3 12 25 16 49 4 23 11 47 16 53 5 6 8 22 8 35 -1 13 8 47 19 74 51 128 74 291 41 289 -14 -1 -12 5 7 34 21 30 24 46 24 126 0 94 -19 275 -46 426 -17 99 -20 112 -41 165 -36 92 -53 123 -70 129 -23 9 -50 -24 -59 -72 -3 -20 -17 -72 -30 -115 -13 -43 -24 -83 -24 -90 0 -19 -50 -177 -76 -238 -13 -31 -24 -62 -24 -68 0 -7 -11 -37 -25 -67 -14 -30 -25 -60 -25 -67 0 -16 -72 -196 -121 -304 -81 -177 -170 -365 -197 -418 -9 -16 -19 -37 -22 -45 -4 -8 -17 -33 -29 -55 -11 -22 -46 -92 -77 -155 -31 -63 -78 -159 -105 -212 -27 -54 -49 -102 -49 -107 0 -6 -10 -27 -22 -48 -24 -39 -66 -149 -75 -193 -3 -14 -13 -33 -22 -44 -19 -21 -123 -76 -146 -76 -9 0 -38 -11 -65 -25 -27 -14 -55 -25 -62 -25 -18 0 -153 -88 -193 -126 -13 -12 -30 -24 -39 -27 -9 -4 -19 -14 -23 -22 -6 -16 -20 -34 -80 -105 -31 -35 -35 -37 -70 -29 -21 4 -63 13 -93 19 -76 15 -175 39 -240 57 -30 8 -80 21 -110 28 -30 7 -81 22 -112 34 -32 12 -65 21 -74 21 -9 0 -30 6 -47 14 -72 31 -89 36 -113 36 -14 0 -40 6 -57 14 -18 8 -50 20 -72 26 -22 7 -56 20 -75 30 -43 22 -144 69 -225 105 -33 15 -78 35 -100 45 -22 10 -83 37 -135 60 -52 23 -105 48 -117 56 -12 8 -31 14 -41 14 -10 0 -22 3 -26 7 -22 22 -94 35 -213 39 -121 4 -136 2 -190 -20 -32 -13 -65 -27 -73 -30 -67 -26 -214 -188 -264 -289 -54 -111 -69 -186 -63 -314 2 -65 12 -158 21 -208 9 -49 22 -119 27 -155 6 -36 17 -90 24 -120 24 -103 44 -195 60 -275 9 -44 25 -109 36 -144 10 -35 17 -66 15 -68 -4 -5 -114 53 -130 68 -6 5 -16 9 -24 9 -7 0 -47 23 -89 50 -42 28 -80 50 -86 50 -5 0 -24 9 -41 19 -17 11 -49 24 -71 30 -22 5 -65 17 -95 25 -63 18 -126 21 -135 6 -4 -7 -13 -6 -26 1 -11 6 -44 17 -72 26 -29 8 -56 19 -62 23 -12 9 -115 37 -206 55 -91 18 -241 23 -246 8 -5 -15 65 -63 92 -63 12 0 43 -10 71 -23 27 -13 69 -30 94 -39 36 -12 45 -19 45 -38 0 -26 15 -36 100 -65 44 -15 78 -28 215 -80 19 -7 67 -30 105 -50 39 -21 82 -44 96 -52 15 -7 32 -20 39 -28 7 -8 18 -15 25 -15 7 0 35 -18 62 -41 l50 -40 -12 -57 c-14 -68 0 -156 31 -200 27 -36 38 -66 21 -55 -6 4 -37 25 -68 45 -116 76 -377 208 -413 208 -9 0 -24 4 -34 9 -24 14 -105 37 -178 51 -46 9 -67 9 -83 1 -26 -14 -27 -42 -3 -63 26 -23 165 -118 173 -118 18 0 123 -72 133 -92 9 -19 56 -49 156 -100 55 -29 198 -144 337 -273 80 -75 233 -245 233 -260 0 -4 9 -20 21 -36 34 -48 79 -137 79 -157 0 -10 4 -22 9 -27 13 -13 30 -83 43 -170 12 -86 3 -300 -17 -392 -8 -37 -20 -93 -27 -123 -6 -30 -22 -79 -35 -109 -13 -29 -23 -60 -23 -68 0 -7 -8 -16 -17 -20 -10 -3 -36 -21 -59 -39 -34 -27 -44 -44 -64 -111 -16 -50 -23 -96 -21 -129 1 -30 -2 -55 -8 -58 -6 -4 -11 -18 -11 -31 0 -13 -5 -37 -11 -52 -7 -15 -18 -44 -26 -63 -39 -95 -52 -124 -98 -225 -20 -44 -47 -102 -59 -130 -40 -86 -56 -119 -65 -135 -24 -42 -71 -147 -71 -159 0 -11 -6 -9 -22 6 -39 34 -91 61 -133 68 -22 4 -75 18 -118 31 -43 13 -94 24 -113 24 -20 0 -83 11 -142 24 -131 30 -397 52 -787 66 -250 9 -342 17 -440 37 -11 2 -54 11 -95 20 -41 8 -102 17 -135 18 -33 1 -78 8 -100 15 -22 7 -90 16 -151 21 -99 7 -171 24 -249 59 -46 21 -138 41 -160 36 -24 -6 -35 8 -35 45 0 16 -92 213 -139 299 -5 8 -13 26 -19 40 -6 14 -19 45 -30 70 -11 25 -23 56 -27 70 -4 14 -16 36 -26 49 -11 13 -19 31 -19 41 0 9 -11 27 -25 40 -13 12 -56 88 -95 169 -39 80 -78 160 -87 176 -9 17 -20 37 -23 45 -4 8 -15 31 -25 50 -10 19 -22 42 -25 50 -4 8 -15 31 -25 50 -19 36 -22 41 -49 100 -9 19 -20 42 -24 50 -5 8 -21 42 -37 75 -15 33 -35 74 -43 90 -9 17 -19 37 -22 45 -4 8 -15 31 -25 50 -10 19 -22 42 -25 50 -4 8 -15 31 -25 50 -10 19 -21 42 -25 50 -10 23 -35 72 -48 95 -35 61 -92 197 -87 206 4 5 2 16 -5 24 -7 9 -8 15 0 20 7 4 7 12 0 26 -6 11 -8 24 -5 29 3 5 1 18 -4 29 -10 18 -9 19 44 5 62 -16 79 -12 69 18 -6 19 -3 20 37 12 71 -13 114 -11 114 6 0 8 -10 19 -22 26 -13 6 -20 14 -17 17 17 17 -26 37 -115 53 -97 18 -98 18 -97 46 1 21 18 43 66 87 56 51 62 60 46 67 -10 4 -27 2 -37 -4 -10 -7 -23 -12 -28 -12 -4 0 -40 -18 -79 -41 -39 -22 -76 -38 -81 -34 -17 10 -13 46 6 60 22 16 10 49 -17 42 -15 -4 -20 1 -22 22 -2 17 -9 26 -20 25 -18 -2 -21 6 -33 66 -14 68 -45 77 -45 12 -1 -33 -2 -35 -13 -17 -6 11 -19 40 -27 65 -23 65 -46 60 -43 -10 l3 -55 -23 29 c-32 40 -46 27 -43 -37 2 -37 10 -63 26 -84 15 -21 20 -38 15 -50 -6 -16 -8 -16 -16 5 -13 33 -54 27 -54 -8 0 -20 5 -25 25 -25 21 0 60 -31 60 -48 0 -3 -27 4 -60 16 -46 17 -62 19 -71 10 -9 -9 -9 -16 1 -28 11 -13 7 -15 -29 -15 l-41 0 0 -55 c0 -59 16 -79 45 -55 22 18 57 3 50 -21 -8 -25 11 -49 37 -49 31 0 17 -20 -53 -79 -79 -68 -97 -123 -24 -75 20 13 28 14 40 4 19 -16 42 1 47 33 2 12 11 23 21 25 9 2 41 19 70 39 l52 35 7 -86 c11 -123 34 -159 61 -94 l13 32 13 -69 c19 -105 50 -127 52 -37 1 44 1 45 10 17 5 -17 22 -46 39 -65 30 -33 45 -63 90 -170 12 -30 26 -62 31 -70 5 -8 12 -22 15 -30 4 -8 21 -46 39 -85 17 -38 46 -104 64 -145 18 -41 41 -93 51 -115 10 -22 28 -62 40 -90 12 -27 34 -77 50 -110 15 -33 40 -87 55 -120 15 -33 37 -82 50 -110 20 -42 41 -92 95 -220 5 -11 11 -36 15 -56 3 -21 12 -42 20 -49 8 -7 15 -25 15 -40 0 -15 9 -35 20 -45 11 -10 20 -26 20 -36 0 -10 4 -20 8 -23 4 -3 20 -29 34 -58 60 -124 98 -210 98 -219 0 -6 12 -31 26 -55 25 -43 26 -46 9 -64 -20 -22 -24 -3 36 -189 17 -54 18 -69 8 -88 -10 -19 -10 -26 3 -40 9 -10 19 -39 23 -65 7 -46 56 -128 77 -128 5 0 22 -9 37 -19 15 -11 40 -23 57 -27 16 -4 43 -16 59 -26 17 -10 37 -21 45 -24 8 -3 29 -12 47 -20 17 -8 40 -14 51 -14 39 0 270 83 318 115 13 8 30 15 39 15 9 0 29 7 46 15 57 30 133 38 191 20 70 -22 219 -63 288 -80 30 -7 78 -22 105 -33 49 -19 74 -28 165 -60 25 -8 63 -24 85 -34 22 -10 63 -24 90 -32 28 -8 88 -29 135 -46 47 -18 108 -38 136 -45 29 -7 79 -22 113 -34 34 -11 72 -21 86 -21 26 0 80 -12 185 -41 47 -13 75 -28 97 -51 30 -33 113 -158 113 -173 0 -4 9 -18 20 -32 26 -34 25 -61 -6 -151 -35 -102 -37 -262 -4 -367 11 -38 25 -86 30 -105 14 -55 58 -145 80 -165 11 -10 20 -26 20 -36 0 -10 5 -21 10 -24 12 -7 90 -123 90 -133 0 -4 38 -55 83 -112 l84 -105 -46 -6 c-25 -4 -129 -12 -231 -19 -102 -6 -255 -20 -340 -31 -85 -11 -201 -24 -256 -29 -56 -5 -144 -18 -195 -30 -51 -11 -111 -20 -134 -20 -54 0 -292 -36 -366 -55 -33 -8 -97 -32 -142 -54 -45 -21 -92 -41 -103 -45 -12 -4 -29 -15 -39 -26 -10 -11 -24 -20 -30 -20 -7 0 -25 -10 -41 -23 -15 -12 -56 -40 -90 -62 -94 -61 -192 -130 -260 -182 -94 -73 -304 -243 -349 -283 -23 -19 -60 -51 -84 -70 -24 -19 -51 -42 -60 -50 -9 -8 -50 -39 -91 -69 l-74 -54 -20 29 c-32 45 -121 127 -162 149 -20 11 -65 48 -98 81 -89 90 -188 144 -237 129 -28 -9 -55 -72 -41 -96 7 -10 12 -24 12 -31 0 -17 59 -76 137 -139 35 -27 63 -56 63 -63 0 -9 -16 -17 -40 -21 -33 -6 -51 -1 -103 24 -35 17 -68 31 -73 31 -22 1 -88 71 -100 106 -8 21 -14 72 -14 112 0 68 -2 76 -29 103 -35 34 -80 39 -88 10 -4 -16 -11 -12 -46 26 -35 38 -45 44 -76 41 l-36 -3 -1 -75 c0 -75 8 -166 22 -229 6 -31 5 -32 -12 -23 -39 21 -114 -11 -114 -48 0 -39 273 -240 325 -240 5 0 31 -21 57 -47 45 -44 54 -48 150 -70 68 -15 135 -39 205 -73 203 -100 308 -90 538 50 36 22 69 40 74 40 4 0 28 10 52 23 42 22 67 32 184 79 124 49 308 118 392 148 65 23 154 62 293 128 49 24 175 91 218 117 9 6 50 30 89 54 l72 43 213 24 c117 13 258 26 313 29 55 4 162 17 238 30 185 33 386 41 580 25 86 -7 161 -16 167 -20 10 -6 8 -18 -5 -53 -17 -46 -18 -46 -35 -25 -18 23 -57 19 -47 -5 3 -6 8 -20 12 -29 5 -12 -3 -21 -30 -33 -57 -28 -66 -47 -47 -105 17 -55 10 -73 -34 -84 -51 -13 -74 -36 -74 -73 0 -36 27 -131 41 -147 16 -18 10 -33 -32 -82 -40 -48 -40 -50 -35 -109 4 -52 1 -68 -23 -120 -44 -92 -56 -142 -55 -235 2 -86 24 -185 52 -228 8 -13 22 -38 31 -55 9 -17 26 -37 38 -43 13 -6 31 -18 41 -27 10 -9 33 -20 52 -23 19 -4 52 -25 77 -49 24 -24 65 -51 91 -60 26 -10 54 -23 62 -30 8 -6 47 -24 85 -40 89 -36 95 -41 95 -79 0 -46 53 -149 90 -176 24 -17 48 -23 97 -25 64 -2 65 -3 93 -45 40 -60 78 -89 119 -90 36 0 93 30 114 60 13 19 15 18 50 -6 20 -13 37 -31 37 -39 0 -7 17 -27 37 -44 31 -26 46 -31 89 -31 43 0 58 5 96 35 25 20 53 51 63 69 18 33 19 34 75 29 91 -9 141 29 169 127 9 31 28 59 61 91 55 53 97 126 82 141 -7 7 -21 7 -43 -1 -17 -6 -41 -11 -52 -11 -19 0 -18 3 9 33 63 66 91 141 59 153 -23 9 -19 20 30 80 25 30 45 65 45 78 0 13 11 44 25 67 38 67 31 193 -16 281 -11 20 -33 99 -61 213 -5 22 -20 58 -33 80 l-23 41 24 49 c27 56 31 111 10 140 -7 11 -17 39 -21 62 -4 24 -11 45 -16 49 -18 11 -8 24 35 45 82 38 84 44 52 162 -15 56 -35 118 -44 137 -9 19 -25 62 -37 95 l-20 60 -52 0 c-71 0 -81 12 -55 67 12 24 24 57 28 73 3 17 15 57 26 90 11 33 24 89 28 125 6 43 14 69 26 77 25 18 54 16 54 -3 0 -9 9 -33 19 -53 28 -52 81 -169 81 -176 0 -4 16 -34 36 -68 35 -59 37 -68 45 -187 19 -278 29 -379 49 -458 11 -46 20 -92 20 -102 0 -38 118 -406 134 -419 7 -6 47 -82 90 -168 43 -87 82 -165 87 -173 5 -8 14 -26 19 -39 6 -13 21 -37 35 -52 13 -16 27 -39 30 -51 4 -13 15 -31 23 -41 20 -23 55 -80 80 -132 11 -22 35 -56 54 -75 19 -19 45 -57 58 -83 14 -27 32 -53 41 -58 9 -5 27 -29 39 -54 12 -25 33 -54 46 -64 14 -11 37 -37 51 -58 14 -21 35 -48 47 -60 11 -12 31 -35 44 -52 13 -17 27 -29 32 -26 10 6 35 -31 43 -65 6 -26 152 -203 187 -227 11 -8 40 -42 65 -77 25 -35 54 -66 65 -69 11 -3 24 -16 29 -29 12 -31 29 -44 66 -52 20 -4 35 -16 43 -34 24 -54 88 -132 154 -189 5 -4 18 -23 29 -42 11 -18 29 -35 40 -38 10 -3 19 -12 19 -21 0 -8 24 -38 52 -67 29 -28 79 -79 110 -113 32 -34 65 -62 73 -62 8 0 15 -4 15 -9 0 -31 149 -171 182 -171 10 0 18 -5 18 -12 0 -10 49 -63 143 -153 11 -11 43 -44 70 -73 28 -29 71 -65 97 -81 26 -16 87 -66 136 -112 141 -133 207 -186 240 -193 16 -4 63 -37 105 -74 67 -60 107 -90 174 -129 11 -7 53 -33 94 -59 41 -26 83 -48 93 -49 10 -1 34 -16 53 -35 35 -34 80 -64 152 -100 23 -12 47 -28 54 -36 6 -8 18 -14 25 -14 8 0 14 -4 14 -10 0 -5 32 -30 72 -56 103 -68 226 -164 379 -296 43 -38 81 -68 86 -68 4 0 32 -26 63 -58 30 -32 77 -76 105 -98 70 -55 80 -64 133 -111 122 -109 215 -194 298 -272 98 -93 164 -143 192 -145 9 0 26 -9 37 -19 40 -37 126 -95 158 -107 18 -6 57 -22 87 -36 105 -45 191 -64 294 -64 77 0 106 4 138 20 23 11 56 20 72 20 46 0 156 106 195 189 44 93 37 119 -52 204 -39 37 -79 67 -89 67 -12 0 -15 5 -11 16 3 8 -3 25 -14 37 -11 12 -23 27 -27 34 -8 15 3 43 18 43 7 0 23 11 35 24 33 35 90 61 104 47 6 -6 18 -11 26 -11 8 0 22 -6 30 -14 9 -8 48 -31 86 -51 68 -37 119 -67 191 -113 19 -12 47 -22 63 -22 16 0 37 -10 51 -25 13 -14 28 -25 33 -25 6 0 18 -6 26 -14 9 -7 50 -26 91 -41 41 -15 92 -36 113 -47 21 -11 44 -17 52 -14 8 3 17 1 21 -5 3 -5 36 -24 72 -40 37 -17 90 -41 117 -54 112 -52 156 -67 176 -62 12 3 35 -1 50 -9 47 -24 136 -18 198 13 88 45 145 103 176 180 14 37 27 79 27 95 1 15 7 28 13 28 23 0 34 25 44 100 6 41 15 95 21 120 21 89 21 138 0 173 -11 17 -20 43 -20 57 0 39 -66 98 -131 117 -86 25 -137 28 -159 8 -17 -15 -18 -15 -16 1 1 14 -21 26 -94 52 -127 45 -188 62 -225 62 -27 0 -154 35 -227 62 -31 12 -36 23 -13 32 9 3 15 19 15 41 0 22 8 43 20 55 16 16 18 25 10 40 -5 10 -11 37 -12 60 -1 22 -7 45 -13 50 -7 6 -10 26 -8 49 3 27 -3 49 -16 72 -11 19 -30 51 -41 71 -13 24 -36 46 -63 59 -23 12 -55 31 -72 44 -51 38 -129 75 -156 75 -23 0 -50 -17 -169 -104 -8 -6 6 13 33 41 26 29 47 59 47 67 0 8 -14 25 -31 38 -17 13 -45 38 -62 56 -18 19 -65 52 -104 74 -40 22 -73 42 -73 44 0 2 24 -6 53 -18 60 -26 190 -37 212 -18 8 6 15 21 17 33 2 14 19 30 48 45 27 13 45 29 45 39 0 10 19 35 43 56 23 22 42 45 42 51 0 30 26 65 53 70 16 3 31 15 36 29 5 12 16 29 25 36 9 7 16 24 16 37 0 19 5 24 24 24 29 0 50 23 44 48 -4 13 3 22 21 30 14 6 43 26 64 43 33 27 37 35 32 61 -4 18 -1 37 7 51 27 42 29 70 5 95 -21 22 -21 24 -4 33 11 7 16 17 12 28 -3 10 1 24 10 31 21 17 20 21 -19 70 -21 26 -32 50 -29 61 3 12 -1 21 -11 25 -9 4 -23 22 -31 40 -9 23 -21 34 -34 34 -12 0 -26 9 -33 21 -12 18 -44 37 -91 53 -25 8 -32 33 -16 62 7 14 59 66 116 117 56 51 103 99 103 108 0 8 11 26 25 39 14 13 37 44 52 69 14 25 35 52 45 60 11 7 17 20 13 29 -3 8 3 25 13 36 42 46 35 232 -11 270 -15 13 -18 20 -9 23 7 3 19 18 27 33 14 27 12 34 -24 122 -69 165 -179 371 -220 413 -93 95 -108 106 -176 129 -39 13 -90 27 -115 31 -25 4 -72 16 -105 26 -51 17 -61 17 -73 5 -13 -12 -18 -11 -39 15 -14 16 -31 29 -38 29 -8 0 -40 11 -72 24 -32 14 -71 27 -87 31 l-30 6 29 19 c15 10 49 26 74 36 25 9 63 28 83 41 21 12 44 23 51 23 8 0 22 8 31 19 23 26 133 78 181 86 22 4 57 15 77 25 21 10 56 21 78 25 22 4 58 15 79 26 22 10 50 19 63 19 13 0 37 9 54 19 17 10 66 26 109 35 44 9 86 23 95 31 10 9 37 15 69 15 29 0 99 11 155 24 55 14 112 26 126 28 18 2 25 9 24 25 0 20 1 20 24 5 25 -16 56 -14 272 23 146 24 319 80 345 110 6 6 16 10 23 7 14 -4 139 45 163 65 8 7 21 13 27 13 6 0 25 12 41 27 17 16 44 38 61 51 28 22 30 28 30 85 0 55 -5 68 -35 109 -21 28 -46 50 -62 54 -15 4 -36 18 -47 31 -30 34 -117 51 -326 63 -96 5 -206 14 -245 19 -38 6 -99 10 -135 11 -37 0 -70 4 -75 9 -6 5 -80 12 -165 15 -192 7 -282 15 -295 27 -5 5 -29 9 -55 9 -25 1 -74 7 -110 15 -36 8 -83 15 -105 15 -22 0 -62 7 -89 15 -27 8 -61 15 -76 15 -15 0 -56 9 -90 20 -63 20 -221 45 -380 60 -47 4 -98 11 -115 14 -16 4 -40 9 -52 12 -12 2 -35 16 -52 30 -19 16 -39 24 -51 21 -10 -3 -21 0 -22 5 -2 6 -31 13 -63 15 -33 3 -64 8 -70 13 -5 4 -27 11 -47 15 -34 6 -39 4 -56 -23 l-18 -31 -11 29 c-12 31 -3 94 16 113 19 19 12 47 -14 57 -14 5 -38 18 -53 29 -15 11 -49 24 -77 30 -57 11 -130 40 -122 47 3 3 16 0 28 -7 13 -6 77 -15 143 -20 146 -10 190 -1 214 43 84 152 181 259 317 348 17 11 46 40 65 65 18 25 41 45 50 45 9 0 25 9 34 19 10 11 39 24 65 30 26 5 67 18 91 29 25 10 61 22 81 26 20 3 44 15 54 26 11 12 31 20 49 20 17 0 60 11 96 24 36 14 103 39 150 56 119 44 250 108 256 124 3 8 13 12 24 9 11 -3 35 4 53 16 19 12 40 21 46 21 19 0 120 86 157 133 41 51 44 94 10 133 -23 28 -23 28 -82 15 -32 -8 -81 -24 -109 -37 -124 -56 -302 -110 -404 -121 l-45 -5 60 67 c32 38 71 81 87 96 15 15 27 34 27 41 0 8 13 21 29 31 26 15 91 102 91 121 0 4 16 26 35 49 19 22 35 46 35 52 0 6 14 37 31 69 30 55 30 58 14 76 -17 19 -17 20 1 27 30 11 121 80 138 105 9 12 16 31 16 42 0 10 14 43 31 72 17 30 28 54 24 54 -4 0 2 15 13 33 11 17 27 59 37 91 9 32 22 68 30 80 7 12 16 46 20 76 3 30 13 63 22 72 10 12 13 26 9 44 -6 21 0 35 23 65 35 43 37 58 16 99 -11 21 -24 30 -55 35 -42 7 -49 5 -225 -56 -49 -17 -108 -35 -130 -41 -22 -5 -49 -15 -60 -22 -11 -7 -38 -16 -60 -20 -41 -8 -115 -59 -115 -80 0 -10 -67 -106 -92 -131 -16 -17 14 48 40 83 54 74 14 85 -173 48 -71 -15 -143 -26 -160 -26 -31 0 -251 -46 -266 -56 -4 -2 -37 -6 -74 -9 -36 -2 -89 -11 -118 -19 -47 -13 -195 -43 -257 -51 -44 -6 -125 -27 -135 -35 -5 -4 -40 -13 -77 -20 -80 -16 -97 -33 -173 -175 -61 -114 -62 -117 -69 -135 -4 -8 -20 -33 -36 -55 -17 -22 -46 -64 -65 -92 -19 -29 -37 -53 -40 -53 -8 0 11 34 62 111 23 36 43 70 43 74 0 10 110 207 128 227 13 16 12 21 -17 50 -26 27 -35 30 -49 21 -12 -7 -24 -8 -36 -1 -12 7 -30 5 -59 -7 -23 -10 -100 -26 -172 -36 -155 -22 -225 -40 -266 -69 -16 -12 -37 -19 -45 -16 -8 3 -33 -3 -56 -15 -42 -21 -55 -20 -125 14 -13 6 -26 7 -30 4 -3 -4 -12 -2 -19 4 -16 13 -69 -13 -84 -42 -9 -15 -15 -18 -24 -10 -10 8 -24 7 -53 -3 -25 -9 -45 -11 -54 -5 -8 5 -26 9 -41 9 -35 0 -43 15 -24 44 8 13 12 26 9 30 -10 10 -12 185 -2 191 12 8 12 62 0 69 -13 9 -10 54 5 67 20 17 17 47 -6 59 -25 13 -25 33 -2 72 17 29 17 30 -7 49 l-24 20 24 27 c13 15 73 79 134 142 168 174 235 250 245 276 5 13 14 24 18 24 5 0 26 21 46 48 54 69 78 100 111 141 28 35 39 54 79 141 9 19 32 55 51 80 19 25 39 55 44 66 5 12 16 24 24 27 15 6 70 96 81 133 4 12 27 59 52 105 25 46 48 95 51 109 10 38 58 131 104 200 27 41 38 65 31 72 -15 15 -33 1 -90 -68 -28 -33 -75 -79 -104 -102 -30 -23 -64 -52 -77 -66 -13 -14 -28 -23 -32 -20 -5 2 -48 -18 -97 -46 -50 -27 -94 -50 -98 -50 -5 0 -54 -22 -109 -48 -55 -27 -131 -64 -170 -82 -38 -18 -81 -41 -95 -50 -14 -9 -34 -19 -45 -22 -11 -3 -29 -9 -40 -14 -17 -7 -18 -5 -8 7 7 9 15 42 19 75 4 32 14 67 22 77 13 15 14 23 4 49 -10 27 -9 35 6 52 25 30 48 76 56 111 4 17 18 66 31 110 13 44 29 111 35 150 6 38 15 74 19 80 17 20 29 124 16 135 -13 11 -183 -84 -192 -107 -3 -8 -15 -18 -27 -24 -11 -6 18 29 65 77 158 162 156 158 163 233 3 36 6 88 6 116 0 32 9 67 24 100 14 27 37 79 52 115 14 36 37 77 51 91 13 14 26 41 29 60 4 22 14 39 27 45 11 5 25 18 31 29 6 11 19 31 29 44 9 13 17 34 17 46 0 12 7 28 15 35 8 6 17 22 21 33 4 12 21 34 38 48 26 23 29 29 17 43 -12 14 -11 16 7 16 24 0 95 57 87 70 -3 4 2 13 10 20 16 13 45 67 45 83 0 5 23 30 52 57 35 33 49 52 45 64 -4 11 -1 16 11 16 28 0 42 21 42 61 0 31 7 43 39 71 25 21 47 54 61 88 12 30 27 66 34 80 8 14 21 43 31 65 16 37 16 40 -1 52 -16 11 -15 13 8 22 36 14 72 68 74 113 1 21 9 46 17 56 27 30 89 161 82 172 -4 7 5 24 20 40 32 34 152 269 161 317 9 47 -5 59 -47 37 -32 -16 -32 -15 12 28 42 43 69 98 69 144 0 11 7 29 15 41 18 26 41 379 30 473 -15 143 -28 236 -35 245 -4 6 -10 26 -14 46 -4 20 -17 48 -29 61 -18 19 -22 34 -19 60 4 39 -40 134 -112 241 -10 15 -24 27 -32 27 -12 0 -55 -83 -116 -220 -11 -25 -28 -61 -39 -81 -10 -20 -19 -42 -19 -49 0 -6 -11 -26 -25 -44 -14 -18 -25 -38 -25 -44 0 -6 -10 -23 -22 -39 -21 -25 -34 -47 -72 -116 -6 -12 -33 -55 -59 -95 -26 -40 -47 -74 -47 -77 0 -2 -13 -24 -29 -47 -93 -140 -121 -184 -121 -194 0 -6 -11 -21 -25 -34 -14 -13 -25 -28 -25 -34 0 -5 -24 -33 -53 -60 -28 -28 -97 -105 -151 -171 -55 -66 -114 -133 -131 -150 -18 -16 -54 -55 -80 -85 -27 -30 -170 -180 -319 -333 -149 -153 -273 -282 -274 -288 -2 -5 -12 -19 -23 -32 -20 -24 -149 -193 -219 -287 l-45 -61 -7 33 c-11 55 -51 75 -134 69 -12 -1 -66 10 -120 25 -55 15 -117 29 -139 32 -22 2 -44 8 -50 12 -5 4 -44 13 -85 20 -61 10 -106 10 -234 0 -131 -11 -169 -11 -220 0 -144 31 -364 60 -458 60 -63 0 -78 3 -78 15 0 9 8 18 18 21 31 10 146 68 187 94 149 95 299 232 444 405 64 76 79 98 139 205 52 93 147 236 168 255 9 8 75 104 119 173 6 8 16 22 23 31 7 9 29 40 48 69 19 29 65 91 102 138 37 47 72 95 78 106 6 10 21 26 33 34 11 8 21 19 21 23 0 4 56 65 124 134 151 156 138 153 288 69 74 -41 149 -44 230 -8 57 25 108 75 108 105 0 9 6 25 13 36 8 11 19 43 26 70 7 28 19 75 26 105 8 30 16 75 19 100 14 110 25 168 39 202 9 21 19 59 23 85 3 26 17 75 29 108 23 63 41 114 81 230 14 39 31 106 38 150 14 74 17 82 60 122 30 27 46 51 46 66 0 13 11 34 25 47 14 13 25 33 25 45 0 12 11 32 25 45 14 13 25 29 25 36 0 6 7 17 15 24 20 16 19 50 -2 92 -9 18 -19 40 -23 48 -5 10 -25 16 -57 18 -49 3 -52 2 -87 -42z m-1053 -3873 c-14 -32 -30 -64 -35 -70 -6 -7 -31 -54 -58 -105 -47 -93 -84 -161 -111 -208 -8 -13 -38 -54 -68 -89 -29 -36 -65 -83 -80 -105 -14 -22 -34 -48 -43 -58 -10 -10 -18 -23 -18 -29 0 -6 -10 -25 -23 -42 -12 -18 -27 -39 -32 -48 -6 -9 -33 -52 -62 -94 -29 -43 -60 -97 -70 -121 -10 -24 -23 -44 -30 -44 -7 0 -27 -21 -45 -46 -18 -25 -79 -96 -136 -157 -56 -61 -126 -141 -155 -178 -28 -37 -60 -71 -70 -74 -9 -4 -23 -17 -30 -30 -6 -12 -66 -74 -132 -137 l-120 -115 1 56 c0 31 -3 88 -8 126 -5 39 -11 90 -12 115 -2 25 -5 50 -7 55 -2 6 1 21 5 34 5 14 4 27 -3 34 -6 6 -11 30 -11 54 0 37 -4 45 -24 53 -14 5 -30 18 -36 30 -6 11 -19 20 -30 20 -12 0 -20 8 -22 23 -2 16 -11 23 -30 25 -31 4 -38 31 -14 51 9 7 16 39 19 79 5 62 13 118 32 215 7 33 5 39 -13 43 -20 6 -20 6 4 41 15 23 24 50 24 74 0 28 4 39 15 39 14 0 67 21 140 56 38 18 64 35 166 109 180 132 338 225 379 225 8 0 21 6 29 13 9 8 32 19 51 27 19 7 59 23 88 36 29 13 59 24 67 24 7 0 27 11 43 25 17 14 33 25 36 25 4 0 21 10 37 23 25 18 45 22 112 24 116 2 152 7 172 23 10 8 28 13 41 12 13 -2 31 1 41 7 10 6 26 11 35 11 15 0 14 -7 -9 -57z m-3849 -32 c232 -72 467 -94 684 -65 33 4 52 3 52 -4 0 -12 -63 -118 -85 -142 -8 -9 -15 -20 -15 -25 0 -5 -6 -16 -14 -24 -8 -9 -21 -27 -28 -41 -8 -14 -35 -58 -61 -98 -26 -40 -47 -74 -47 -76 0 -2 -19 -32 -42 -66 -24 -34 -51 -76 -61 -93 -11 -18 -22 -36 -27 -40 -7 -8 -50 72 -50 93 0 16 -101 211 -124 242 -12 14 -34 49 -51 77 -16 29 -62 101 -101 161 -39 61 -69 110 -66 110 3 0 19 -4 36 -9z m-1458 -262 c17 -5 39 -18 49 -29 10 -11 21 -20 26 -20 4 0 22 -13 41 -29 18 -16 44 -39 58 -51 l25 -22 -25 16 c-49 32 -76 49 -117 77 -23 16 -44 29 -47 29 -3 0 -22 12 -43 26 -21 15 -29 24 -18 19 11 -4 34 -11 51 -16z m-2558 -3228 l43 -17 -23 -20 c-38 -33 -92 -53 -112 -42 -13 8 -15 13 -5 24 6 7 9 29 7 49 -4 32 -3 34 22 28 14 -3 44 -13 68 -22z m3978 -507 c8 -77 19 -188 24 -249 5 -60 16 -156 25 -212 17 -118 20 -209 5 -218 -5 -3 -10 1 -10 9 0 9 -12 42 -26 73 -15 32 -37 81 -49 108 -38 84 -78 270 -73 340 6 72 74 302 86 290 2 -1 10 -65 18 -141z m163 -2333 c11 -7 11 -13 -3 -32 -9 -13 -16 -19 -16 -14 0 6 -3 20 -6 33 -7 23 2 28 25 13z m-36 -255 c-6 -55 -7 -57 -19 -35 -19 34 -17 70 3 85 10 7 19 11 20 10 1 -1 -1 -28 -4 -60z m-302 -1737 c-18 -15 -26 -17 -32 -7 -11 18 -1 28 29 28 l27 -1 -24 -20z m6371 -1476 c6 -8 -1 -7 -20 2 -16 9 -36 23 -43 32 -12 14 -8 13 19 -3 19 -10 38 -25 44 -31z m112 -54 c46 -22 96 -52 112 -66 l29 -25 -45 25 c-25 13 -76 41 -115 62 -74 39 -83 45 -71 45 5 0 45 -18 90 -41z"/>
 <path d="M754 12145 c-9 -23 3 -45 26 -45 25 0 37 25 20 45 -16 19 -39 19 -46 0z"/>
 <path d="M144 11959 c-3 -6 1 -18 10 -27 15 -15 17 -15 32 0 19 19 11 38 -16 38 -10 0 -22 -5 -26 -11z"/>
 <path d="M420 11814 c-11 -12 -10 -18 3 -32 16 -15 18 -15 34 0 13 14 14 20 3 32 -7 9 -16 16 -20 16 -4 0 -13 -7 -20 -16z"/>
 <path d="M143 11794 c-8 -22 10 -49 33 -49 22 0 31 30 14 50 -16 20 -39 19 -47 -1z"/>
 <path d="M749 11404 c-17 -21 0 -49 32 -49 27 0 37 28 19 50 -16 19 -34 19 -51 -1z"/>
 <path d="M957 11363 c-14 -13 -6 -43 13 -53 24 -13 40 -6 40 19 0 30 -35 53 -53 34z"/>
 <path d="M894 10956 c-9 -24 4 -48 23 -44 12 2 18 12 18 28 0 29 -32 41 -41 16z"/>
 <path d="M674 10745 c-4 -9 -2 -21 4 -27 15 -15 44 -1 40 19 -4 23 -36 29 -44 8z"/>
 <path d="M884 10675 c-4 -9 0 -23 9 -32 21 -21 49 -9 45 19 -4 28 -45 38 -54 13z"/>
 <path d="M1349 10564 c-17 -21 0 -49 32 -49 27 0 37 28 19 50 -16 19 -34 19 -51 -1z"/>
 <path d="M253 10544 c-8 -22 9 -49 33 -49 30 0 27 59 -4 63 -14 2 -25 -3 -29 -14z"/>
 <path d="M1077 10553 c-15 -15 -5 -44 18 -55 36 -16 53 1 37 37 -11 23 -40 33 -55 18z"/>
 <path d="M904 10499 c-3 -6 1 -18 10 -27 15 -15 17 -15 32 0 19 19 11 38 -16 38 -10 0 -22 -5 -26 -11z"/>
 <path d="M490 10474 c-11 -12 -10 -18 3 -31 22 -23 52 0 36 28 -12 23 -22 24 -39 3z"/>
 <path d="M400 10415 c-15 -18 -5 -35 20 -35 10 0 22 5 25 10 7 11 -12 40 -25 40 -4 0 -13 -7 -20 -15z"/>
 <path d="M998 10355 c-9 -21 -9 -28 3 -40 12 -12 17 -11 39 5 20 16 23 22 14 37 -17 28 -42 27 -56 -2z"/>
 <path d="M574 10335 c-9 -22 22 -53 37 -38 15 15 7 47 -14 51 -9 2 -20 -4 -23 -13z"/>
 <path d="M523 10254 c-3 -8 1 -22 9 -30 13 -13 16 -13 27 0 7 9 11 23 7 31 -7 20 -35 19 -43 -1z"/>
 <path d="M464 10106 c-9 -24 4 -48 23 -44 12 2 18 12 18 28 0 29 -32 41 -41 16z"/>
 <path d="M233 9973 c-28 -5 -47 -29 -39 -48 10 -28 34 -27 71 0 28 22 33 30 24 41 -12 14 -16 15 -56 7z"/>
 </g>

</svg>